<?xml version="1.0" encoding="utf-8"?>
<!-- Generator: Adobe Illustrator 22.1.0, SVG Export Plug-In . SVG Version: 6.00 Build 0)  -->
<svg version="1.1" id="Layer_1" xmlns="http://www.w3.org/2000/svg" xmlns:xlink="http://www.w3.org/1999/xlink" x="0px" y="0px"
	 viewBox="0 0 88 31" style="enable-background:new 0 0 88 31;" xml:space="preserve">
<style type="text/css">
	.st0{fill:none;}
	.st1{fill:#FFFFFF;}
</style>
<title>cc-zero</title>
<ellipse class="st0" cx="14.4" cy="15.6" rx="11.1" ry="11.2"/>
<path d="M23.8,4.2c6.3,4.7,7.6,13.6,2.9,19.9c-0.6,0.8-1.3,1.6-2,2.2h62.9V4.2H23.8z"/>
<path class="st1" d="M36.2,7.7c0.3,0,0.7,0.1,1,0.2c0.3,0.1,0.5,0.3,0.7,0.5c0.2,0.2,0.3,0.4,0.4,0.6c0.1,0.2,0.1,0.5,0.1,0.8
	c0,0.3,0,0.5-0.1,0.8c-0.2,0.5-0.5,0.9-1,1.1c-0.3,0.1-0.7,0.2-1,0.2h-1.5V14h-1.4V7.7H36.2z M35.9,10.7c0.2,0,0.3,0,0.5,0
	c0.1,0,0.3-0.1,0.4-0.1c0.1-0.1,0.2-0.2,0.3-0.3c0.2-0.3,0.2-0.7,0-1c-0.1-0.1-0.1-0.2-0.3-0.3c-0.1-0.1-0.3-0.1-0.4-0.1
	c-0.2,0-0.3,0-0.5,0h-1.1v1.9L35.9,10.7z"/>
<path class="st1" d="M44.2,13.5c-0.6,0.5-1.3,0.7-2,0.6c-0.7,0-1.4-0.2-2-0.6c-0.5-0.5-0.8-1.2-0.7-1.9V7.7H41v3.9
	c0,0.2,0,0.3,0,0.5c0,0.2,0.1,0.3,0.2,0.4c0.1,0.1,0.2,0.2,0.4,0.3c0.2,0.1,0.4,0.1,0.7,0.1c0.4,0,0.7-0.1,1-0.3
	c0.2-0.3,0.3-0.6,0.3-1v-4H45v3.9C45,12.3,44.8,13,44.2,13.5z"/>
<path class="st1" d="M49.6,7.7c0.3,0,0.5,0,0.8,0.1c0.2,0,0.4,0.1,0.6,0.3c0.2,0.1,0.3,0.3,0.4,0.5c0.1,0.2,0.2,0.5,0.2,0.8
	c0,0.3-0.1,0.6-0.2,0.8c-0.2,0.2-0.4,0.4-0.6,0.5c0.4,0.1,0.7,0.3,0.9,0.6c0.2,0.3,0.3,0.6,0.3,1c0,0.3-0.1,0.6-0.2,0.8
	c-0.1,0.2-0.3,0.4-0.5,0.6c-0.2,0.2-0.5,0.3-0.7,0.3c-0.3,0.1-0.5,0.1-0.8,0.1h-3V7.7H49.6z M49.4,10.2c0.2,0,0.4-0.1,0.6-0.2
	c0.2-0.1,0.3-0.4,0.2-0.6c0-0.1,0-0.3-0.1-0.4c0-0.1-0.1-0.1-0.2-0.2c-0.1-0.1-0.2-0.1-0.3-0.1c-0.1,0-0.2,0-0.3,0H48v1.5L49.4,10.2
	z M49.5,12.9c0.1,0,0.3,0,0.4,0c0.1,0,0.2-0.1,0.3-0.1c0.1-0.1,0.2-0.1,0.2-0.2c0.1-0.1,0.1-0.3,0.1-0.4c0-0.3-0.1-0.5-0.3-0.7
	c-0.2-0.1-0.5-0.2-0.7-0.2H48v1.7L49.5,12.9L49.5,12.9z"/>
<path class="st1" d="M54.6,7.7v5.2h3.1V14h-4.5V7.7H54.6z"/>
<path class="st1" d="M60.2,7.7V14h-1.4V7.7H60.2z"/>
<path class="st1" d="M66,9.4c-0.1-0.1-0.2-0.3-0.4-0.4c-0.1-0.1-0.3-0.2-0.4-0.2c-0.2-0.1-0.3-0.1-0.5-0.1c-0.3,0-0.6,0.1-0.8,0.2
	c-0.2,0.1-0.4,0.3-0.5,0.5c-0.1,0.2-0.2,0.4-0.3,0.7c-0.1,0.3-0.1,0.5-0.1,0.8c0,0.3,0,0.5,0.1,0.8c0.1,0.2,0.2,0.5,0.3,0.7
	c0.3,0.4,0.8,0.7,1.3,0.7c0.4,0,0.7-0.1,1-0.4c0.2-0.3,0.4-0.6,0.4-1h1.3c0,0.4-0.1,0.7-0.3,1.1c-0.1,0.3-0.3,0.6-0.6,0.8
	c-0.2,0.2-0.5,0.4-0.8,0.5c-0.3,0.1-0.7,0.2-1.1,0.2c-0.4,0-0.9-0.1-1.3-0.2c-0.4-0.2-0.7-0.4-1-0.7c-0.3-0.3-0.5-0.6-0.6-1
	c-0.1-0.4-0.2-0.9-0.2-1.3c0-0.4,0.1-0.9,0.2-1.3c0.1-0.4,0.3-0.8,0.6-1.1c0.3-0.3,0.6-0.6,1-0.7c0.4-0.2,0.9-0.3,1.3-0.3
	c0.3,0,0.7,0,1,0.2C66,7.8,66.3,8,66.6,8.2c0.2,0.2,0.5,0.4,0.6,0.7c0.2,0.3,0.3,0.6,0.3,1h-1.4C66.1,9.7,66.1,9.5,66,9.4z"/>
<path class="st1" d="M36.1,16.5c0.4,0,0.8,0.1,1.1,0.2c0.3,0.1,0.7,0.3,0.9,0.6c0.3,0.3,0.5,0.6,0.6,1c0.2,0.4,0.2,0.9,0.2,1.3
	c0,0.4-0.1,0.9-0.2,1.3c-0.1,0.4-0.3,0.7-0.5,1c-0.2,0.3-0.6,0.5-0.9,0.7c-0.4,0.2-0.8,0.3-1.3,0.2h-2.7v-6.3H36.1z M36,21.7
	c0.2,0,0.4,0,0.6-0.1c0.2-0.1,0.4-0.2,0.5-0.3c0.2-0.2,0.3-0.4,0.3-0.6c0.1-0.3,0.1-0.6,0.1-0.9c0-0.3,0-0.6-0.1-0.9
	c-0.1-0.2-0.2-0.5-0.3-0.7c-0.1-0.2-0.3-0.3-0.6-0.4c-0.3-0.1-0.6-0.2-0.9-0.1h-1v4L36,21.7z"/>
<path class="st1" d="M40.3,18.4c0.1-0.4,0.3-0.8,0.6-1.1c0.3-0.3,0.6-0.6,1-0.7c0.4-0.2,0.9-0.3,1.3-0.3c0.4,0,0.9,0.1,1.3,0.3
	c0.4,0.2,0.7,0.4,1,0.7c0.3,0.3,0.5,0.7,0.6,1.1c0.2,0.4,0.2,0.9,0.2,1.3c0,0.4-0.1,0.9-0.3,1.3c-0.1,0.4-0.3,0.7-0.6,1
	c-0.3,0.3-0.6,0.5-1,0.7C44,22.9,43.6,23,43.2,23c-0.4,0-0.9-0.1-1.3-0.2c-0.4-0.2-0.7-0.4-1-0.7c-0.3-0.3-0.5-0.6-0.6-1
	c-0.1-0.4-0.2-0.8-0.2-1.3C40,19.3,40.1,18.8,40.3,18.4z M41.6,20.5c0.1,0.2,0.2,0.5,0.3,0.7c0.1,0.2,0.3,0.4,0.5,0.5
	c0.5,0.2,1.1,0.2,1.6,0c0.2-0.1,0.4-0.3,0.5-0.5c0.1-0.2,0.2-0.4,0.3-0.7c0.1-0.3,0.1-0.5,0.1-0.8c0-0.3,0-0.5-0.1-0.8
	c-0.1-0.2-0.2-0.5-0.3-0.7c-0.5-0.7-1.4-0.9-2.1-0.5c-0.2,0.1-0.4,0.3-0.5,0.5c-0.1,0.2-0.2,0.5-0.3,0.7c-0.1,0.3-0.1,0.5-0.1,0.8
	C41.5,20,41.5,20.2,41.6,20.5z"/>
<path class="st1" d="M49.6,16.5l1.5,4.4l0,0l1.4-4.4h1.9v6.3h-1.3v-4.5l0,0l-1.5,4.5h-1.1L49,18.4l0,0v4.4h-1.3v-6.3H49.6z"/>
<path class="st1" d="M59.3,16.5l2.3,6.3h-1.4l-0.5-1.4h-2.4l-0.5,1.4h-1.4l2.4-6.3H59.3z M59.3,20.4l-0.8-2.3l0,0l-0.8,2.3H59.3z"/>
<path class="st1" d="M64.1,16.5v6.3h-1.4v-6.3H64.1z"/>
<path class="st1" d="M67.1,16.5l2.6,4.2l0,0v-4.2H71v6.3h-1.3L67,18.6l0,0v4.2h-1.3v-6.3H67.1z"/>
<ellipse class="st0" cx="14.7" cy="15.8" rx="11" ry="11.1"/>
<path d="M14.7,8.9c-3.9,0-4.8,3.7-4.8,6.8s1,6.8,4.8,6.8s4.8-3.7,4.8-6.8S18.6,8.9,14.7,8.9z M14.7,11.4c0.1,0,0.3,0,0.4,0.1
	c0.3,0.2,0.4,0.7,0.1,1l-2.6,4.8c-0.1-0.5-0.1-1.1-0.1-1.6C12.6,14.3,12.7,11.4,14.7,11.4z M16.6,13.6c0.1,0.7,0.2,1.3,0.1,2
	c0,1.4-0.1,4.2-2.1,4.2c-0.1,0-0.3,0-0.4,0h-0.1h-0.1c-0.4-0.2-0.7-0.5-0.3-1.1L16.6,13.6z"/>
<path d="M14.7,3.8C11.6,3.8,8.6,5,6.5,7.3c-1.1,1.1-2,2.4-2.6,3.9c-1.2,2.9-1.2,6.1,0,9c0.6,1.4,1.5,2.7,2.5,3.8
	c1.1,1.1,2.4,2,3.8,2.6c2.9,1.2,6.1,1.2,8.9,0c1.5-0.6,2.8-1.5,3.9-2.6c1.1-1.1,1.9-2.3,2.5-3.7c0.6-1.4,0.9-3,0.9-4.5
	c0-1.6-0.3-3.1-0.9-4.5c-0.6-1.4-1.4-2.7-2.5-3.8C20.9,5.1,17.8,3.8,14.7,3.8z M14.7,6c2.6,0,5,1,6.8,2.8c0.9,0.9,1.6,2,2.1,3.1
	c0.5,1.2,0.7,2.4,0.7,3.7c0.1,2.5-0.9,5-2.7,6.7c-0.9,0.9-2,1.6-3.2,2.1c-1.1,0.5-2.4,0.7-3.6,0.7c-1.2,0-2.5-0.2-3.6-0.7
	C9.9,24,8.9,23.3,8,22.4c-0.9-0.9-1.6-2-2.1-3.1c-1-2.3-1-5,0-7.3C6.4,10.8,7.1,9.7,8,8.8C9.8,7,12.2,5.9,14.7,6z"/>
<rect class="st0" width="88" height="31"/>
</svg>
