<?xml version="1.0" encoding="UTF-8" standalone="no"?>
<!-- Created with Inkscape (http://www.inkscape.org/) -->

<svg
   version="1.1"
   id="svg2"
   width="368"
   height="496.64001"
   viewBox="0 0 368 496.64001"
   sodipodi:docname="florence.svg"
   inkscape:version="1.1 (c68e22c387, 2021-05-23)"
   xmlns:inkscape="http://www.inkscape.org/namespaces/inkscape"
   xmlns:sodipodi="http://sodipodi.sourceforge.net/DTD/sodipodi-0.dtd"
   xmlns="http://www.w3.org/2000/svg"
   xmlns:svg="http://www.w3.org/2000/svg">
  <defs
     id="defs6" />
  <sodipodi:namedview
     id="namedview4"
     pagecolor="#000000"
     bordercolor="#666666"
     borderopacity="1.0"
     inkscape:pageshadow="2"
     inkscape:pageopacity="0"
     inkscape:pagecheckerboard="0"
     showgrid="false"
     inkscape:zoom="0.8678318"
     inkscape:cx="184.36752"
     inkscape:cy="248.32001"
     inkscape:window-width="1841"
     inkscape:window-height="1051"
     inkscape:window-x="70"
     inkscape:window-y="-9"
     inkscape:window-maximized="1"
     inkscape:current-layer="g8" />
  <g
     inkscape:groupmode="layer"
     inkscape:label="Image"
     id="g8">
    <g
       id="g827"
       transform="translate(0.5431124,1.1522974)"
       style="fill:#ffffff">
      <path
         style="fill:#ffffff;fill-opacity:1;stroke-width:0.64"
         d="m 172.21053,477.06668 c 0.0307,-0.74557 0.18236,-0.89722 0.38666,-0.38667 0.18488,0.462 0.16214,1.014 -0.0505,1.22667 -0.21266,0.21266 -0.36393,-0.16534 -0.33614,-0.84 z m 21.62783,-14.18667 c -0.79608,-1.01508 -0.77344,-1.03772 0.24164,-0.24164 0.616,0.4831 1.12,0.9871 1.12,1.12 0,0.52675 -0.52556,0.18772 -1.36164,-0.87836 z M 136,397.44001 c 0.63711,-0.704 1.30239,-1.28 1.47839,-1.28 0.176,0 -0.20128,0.576 -0.83839,1.28 -0.63711,0.704 -1.30239,1.28 -1.47839,1.28 -0.176,0 0.20128,-0.576 0.83839,-1.28 z m 114.15836,-1.12 c -0.79608,-1.01508 -0.77344,-1.03772 0.24164,-0.24164 0.616,0.4831 1.12,0.9871 1.12,1.12 0,0.52675 -0.52556,0.18772 -1.36164,-0.87836 z m -39.04,-25.6 c -0.79608,-1.01508 -0.77344,-1.03772 0.24164,-0.24164 0.616,0.4831 1.12,0.9871 1.12,1.12 0,0.52674 -0.52556,0.18772 -1.36164,-0.87836 z m -181.759995,-28.16 c -0.796078,-1.01508 -0.773441,-1.03772 0.241635,-0.24164 0.616,0.4831 1.12,0.9871 1.12,1.12 0,0.52674 -0.525559,0.18772 -1.361635,-0.87836 z m 243.839995,-7.68 c -0.79608,-1.01508 -0.77344,-1.03772 0.24164,-0.24164 0.616,0.4831 1.12,0.9871 1.12,1.12 0,0.52674 -0.52556,0.18772 -1.36164,-0.87836 z m 8.02083,-3.52 -1.21919,-1.44 1.44,1.21919 c 1.35324,1.14574 1.73135,1.66081 1.21919,1.66081 -0.12144,0 -0.76944,-0.648 -1.44,-1.44 z m -90.39814,-13.28 c 0,-0.88 0.14527,-1.24 0.32281,-0.8 0.17754,0.44 0.17754,1.16 0,1.6 -0.17754,0.44 -0.32281,0.08 -0.32281,-0.8 z m 3.86372,-6.72 c 0.0131,-1.056 0.15648,-1.41053 0.31874,-0.78782 0.16227,0.6227 0.1516,1.4867 -0.0237,1.92 -0.17532,0.43329 -0.30808,-0.0762 -0.29503,-1.13218 z m -3.76645,-2.56 c 0.004,-2.112 0.12307,-2.89885 0.26551,-1.74854 0.14244,1.1503 0.1395,2.8783 -0.007,3.84 -0.14604,0.96169 -0.26257,0.0205 -0.25898,-2.09146 z m 75.37221,0.58667 c 0.0307,-0.74557 0.18236,-0.89722 0.38666,-0.38667 0.18488,0.46199 0.16214,1.014 -0.0505,1.22667 -0.21266,0.21266 -0.36393,-0.16534 -0.33614,-0.84 z m -89.54948,-3.46667 c 0,-0.88 0.14527,-1.24 0.32281,-0.8 0.17754,0.44 0.17754,1.16 0,1.6 -0.17754,0.44 -0.32281,0.08 -0.32281,-0.8 z m -0.69052,-15.09334 c 0.0307,-0.74556 0.18236,-0.89721 0.38666,-0.38666 0.18488,0.46199 0.16214,1.014 -0.0505,1.22666 -0.21266,0.21267 -0.36393,-0.16533 -0.33614,-0.84 z M 81.838362,276.64001 c -0.796077,-1.01508 -0.77344,-1.03772 0.241638,-0.24164 0.616,0.4831 1.12,0.9871 1.12,1.12 0,0.52674 -0.525562,0.18772 -1.361638,-0.87836 z m 215.270118,-22.56 c 0,-1.232 0.13171,-1.736 0.29269,-1.12 0.16097,0.616 0.16097,1.624 0,2.24 -0.16098,0.616 -0.29269,0.112 -0.29269,-1.12 z M 293.03836,242.72 c -0.79608,-1.01507 -0.77344,-1.03771 0.24164,-0.24163 0.616,0.4831 1.12,0.9871 1.12,1.12 0,0.52674 -0.52556,0.18771 -1.36164,-0.87837 z M 50.44,185.16281 c 0.462,-0.18487 1.014,-0.16214 1.226667,0.0505 0.212666,0.21266 -0.165334,0.36393 -0.84,0.33614 -0.745564,-0.0307 -0.897216,-0.18236 -0.386667,-0.38666 z m 4.77218,-0.006 c 0.622699,-0.16226 1.486699,-0.15159 1.92,0.0238 0.433301,0.17531 -0.07618,0.30807 -1.13218,0.29503 -1.056,-0.0131 -1.410519,-0.15648 -0.78782,-0.31874 z M 85.76,178.95837 c 0,-0.1329 0.504,-0.6369 1.12,-1.12 1.015078,-0.79608 1.037715,-0.77344 0.241638,0.24163 -0.836076,1.06608 -1.361638,1.40511 -1.361638,0.87837 z m 167.68,-7.68 c 0,-0.1329 0.504,-0.6369 1.12,-1.12 1.01508,-0.79608 1.03772,-0.77344 0.24164,0.24163 -0.83608,1.06608 -1.36164,1.40511 -1.36164,0.87837 z M 100.39836,156.96 c -0.796075,-1.01508 -0.773438,-1.03771 0.24164,-0.24164 0.616,0.48311 1.12,0.98711 1.12,1.12 0,0.52675 -0.52556,0.18772 -1.36164,-0.87836 z M 86.92,154.44281 c 0.461997,-0.18487 1.013997,-0.16214 1.226669,0.0505 0.212665,0.21266 -0.165338,0.36393 -0.84,0.33614 -0.745568,-0.0307 -0.897216,-0.18236 -0.386669,-0.38666 z m -27.56,-8.33447 c 0.792,-0.15255 2.088,-0.15255 2.88,0 0.792,0.15254 0.144,0.27735 -1.44,0.27735 -1.584,0 -2.232,-0.12481 -1.44,-0.27735 z m 246.44,0.0145 c 0.462,-0.18488 1.014,-0.16214 1.22667,0.0505 0.21266,0.21266 -0.16534,0.36393 -0.84,0.33614 -0.74557,-0.0307 -0.89722,-0.18237 -0.38667,-0.38667 z m 2.56,0 c 0.462,-0.18488 1.014,-0.16214 1.22667,0.0505 0.21266,0.21266 -0.16534,0.36393 -0.84,0.33614 -0.74557,-0.0307 -0.89722,-0.18237 -0.38667,-0.38667 z M 286.4,138.24 c 0.63711,-0.704 1.30239,-1.28 1.47839,-1.28 0.176,0 -0.20128,0.576 -0.83839,1.28 -0.63711,0.704 -1.30239,1.28 -1.47839,1.28 -0.176,0 0.20128,-0.576 0.83839,-1.28 z M 77.699194,134.88 76.48,133.44 l 1.44,1.2192 c 1.353242,1.14574 1.731354,1.6608 1.219194,1.6608 -0.121447,0 -0.769447,-0.648 -1.44,-1.44 z m 185.391336,-0.85333 c 0.0307,-0.74557 0.18236,-0.89721 0.38666,-0.38667 0.18488,0.462 0.16214,1.014 -0.0505,1.22667 -0.21266,0.21267 -0.36393,-0.16534 -0.33614,-0.84 z M 90.158362,132.64 c -0.796077,-1.01508 -0.77344,-1.03771 0.241638,-0.24164 0.616,0.48311 1.12,0.98711 1.12,1.12 0,0.52675 -0.525562,0.18772 -1.361638,-0.87836 z M 263.14105,131.2 c 0,-0.88 0.14527,-1.24 0.32281,-0.8 0.17754,0.44 0.17754,1.16 0,1.6 -0.17754,0.44 -0.32281,0.08 -0.32281,-0.8 z M 284.16,126.47836 c 0,-0.13289 0.504,-0.63689 1.12,-1.12 1.01508,-0.79607 1.03772,-0.77344 0.24164,0.24164 -0.83608,1.06608 -1.36164,1.40511 -1.36164,0.87836 z M 120.51178,83.840002 c 0,-1.936 0.11998,-2.728 0.26662,-1.76 0.14664,0.968 0.14664,2.552 0,3.52 -0.14664,0.968 -0.26662,0.176 -0.26662,-1.76 z m 180.97875,2.186669 c 0.0307,-0.745568 0.18236,-0.897216 0.38666,-0.386669 0.18488,0.461997 0.16214,1.013997 -0.0505,1.226669 -0.21266,0.212665 -0.36393,-0.165338 -0.33614,-0.84 z M 61.998365,75.680002 C 61.202287,74.664923 61.224924,74.642286 62.24,75.438363 c 0.616,0.483104 1.12,0.987104 1.12,1.12 0,0.526746 -0.525559,0.187719 -1.361635,-0.878361 z M 136.32,45.838366 c 0,-0.1329 0.504,-0.6369 1.12,-1.12 1.01508,-0.796078 1.03772,-0.773441 0.24164,0.241635 -0.83608,1.066079 -1.36164,1.405106 -1.36164,0.878365 z"
         id="path843" />
      <path
         style="fill:#ffffff;fill-opacity:1;stroke-width:0.64"
         d="m 176.74105,303.36001 c 0,-0.88 0.14527,-1.24 0.32281,-0.8 0.17754,0.44 0.17754,1.16 0,1.6 -0.17754,0.44 -0.32281,0.08 -0.32281,-0.8 z m 14.66948,-11.25334 c 0.0307,-0.74556 0.18236,-0.89721 0.38666,-0.38666 0.18488,0.46199 0.16214,1.014 -0.0505,1.22666 -0.21266,0.21267 -0.36393,-0.16533 -0.33614,-0.84 z m -120.960002,-38.4 c 0.03072,-0.74556 0.182362,-0.89721 0.386662,-0.38666 0.184877,0.46199 0.162144,1.014 -0.0505,1.22666 -0.212672,0.21267 -0.363929,-0.16533 -0.33614,-0.84 z M 281.48,154.44281 c 0.462,-0.18487 1.014,-0.16214 1.22667,0.0505 0.21266,0.21266 -0.16534,0.36393 -0.84,0.33614 -0.74557,-0.0307 -0.89722,-0.18236 -0.38667,-0.38666 z m -224.64,-8.32 c 0.462,-0.18487 1.014,-0.16214 1.226667,0.0505 0.212666,0.21266 -0.165334,0.36393 -0.84,0.33614 -0.745564,-0.0307 -0.897216,-0.18236 -0.386667,-0.38666 z"
         id="path841" />
      <path
         style="fill:#ffffff;fill-opacity:1;stroke-width:0.64"
         d="m 172.8,463.75837 c 0,-0.1329 0.504,-0.6369 1.12,-1.12 1.01508,-0.79608 1.03772,-0.77344 0.24164,0.24164 -0.83608,1.06608 -1.36164,1.40511 -1.36164,0.87836 z m -80,-127.36 c 0,-0.1329 0.504,-0.6369 1.12,-1.12 1.015078,-0.79608 1.037715,-0.77344 0.241638,0.24164 C 93.325562,336.58609 92.8,336.92511 92.8,336.39837 Z m -42.321635,-8.55836 c -0.796078,-1.01508 -0.773441,-1.03772 0.241635,-0.24164 1.066079,0.83608 1.405107,1.36164 0.878365,1.36164 -0.1329,0 -0.6369,-0.504 -1.12,-1.12 z m 72.020825,-76.48 -1.21919,-1.44 1.44,1.21919 c 1.35324,1.14574 1.73135,1.66081 1.21919,1.66081 -0.12144,0 -0.76944,-0.648 -1.44,-1.44 z M 12.8,203.91837 c 0,-0.1329 0.504,-0.6369 1.12,-1.12 1.015076,-0.79608 1.037713,-0.77344 0.241635,0.24163 C 13.325559,204.10608 12.8,204.44511 12.8,203.91837 Z M 103.95974,160.48 102.08,158.4 l 2.08,1.87974 c 1.93885,1.75218 2.37418,2.28026 1.87974,2.28026 -0.11015,0 -1.04615,-0.936 -2.08,-2.08 z m 13.11182,-0.32 -1.55156,-1.76 1.76,1.55156 c 1.64499,1.45017 2.0535,1.96844 1.55156,1.96844 -0.11464,0 -0.90664,-0.792 -1.76,-1.76 z m -3.53237,-3.52 -1.21919,-1.44 1.44,1.2192 c 1.35324,1.14574 1.73135,1.6608 1.21919,1.6608 -0.12144,0 -0.76944,-0.648 -1.44,-1.44 z M 290.88,133.76 c 0.63711,-0.704 1.30239,-1.28 1.47839,-1.28 0.176,0 -0.20128,0.576 -0.83839,1.28 -0.63711,0.704 -1.30239,1.28 -1.47839,1.28 -0.176,0 0.20128,-0.576 0.83839,-1.28 z m 14.4,-13.68164 c 0,-0.13289 0.504,-0.63689 1.12,-1.12 1.01508,-0.79607 1.03772,-0.77344 0.24164,0.24164 -0.83608,1.06608 -1.36164,1.40511 -1.36164,0.87836 z M 74.798362,118.56 c -0.796077,-1.01508 -0.77344,-1.03771 0.241638,-0.24164 0.616,0.48311 1.12,0.98711 1.12,1.12 0,0.52675 -0.525562,0.18772 -1.361638,-0.87836 z"
         id="path839" />
      <path
         style="fill:#ffffff;fill-opacity:1;stroke-width:0.64"
         d="m 195.30105,476.80001 c 0,-0.88 0.14527,-1.24 0.32281,-0.8 0.17754,0.44 0.17754,1.16 0,1.6 -0.17754,0.44 -0.32281,0.08 -0.32281,-0.8 z m -59.62105,-40.32 c 0,-0.704 0.11041,-1.28 0.24536,-1.28 0.13494,0 0.39598,0.576 0.58008,1.28 0.1841,0.704 0.0737,1.28 -0.24536,1.28 -0.31904,0 -0.58008,-0.576 -0.58008,-1.28 z m 95.04453,0.64733 c -0.22422,-0.36279 0.0327,-0.47008 0.60223,-0.25153 1.10875,0.42547 1.31161,0.8842 0.39101,0.8842 -0.33122,0 -0.77819,-0.28471 -0.99324,-0.63267 z M 280.84,404.68282 c 0.462,-0.18488 1.014,-0.16215 1.22667,0.0505 0.21266,0.21267 -0.16534,0.36393 -0.84,0.33614 -0.74557,-0.0307 -0.89722,-0.18236 -0.38667,-0.38666 z m 38.57053,-46.01614 c 0.0307,-0.74557 0.18236,-0.89722 0.38666,-0.38667 0.18488,0.46199 0.16214,1.014 -0.0505,1.22667 -0.21266,0.21266 -0.36393,-0.16534 -0.33614,-0.84 z M 66.44,343.88282 c 0.461997,-0.18488 1.013997,-0.16215 1.226669,0.0505 0.212665,0.21267 -0.165338,0.36393 -0.84,0.33614 -0.745568,-0.0307 -0.897216,-0.18236 -0.386669,-0.38666 z m 5.76,0 c 0.461997,-0.18488 1.013997,-0.16215 1.226669,0.0505 0.212665,0.21267 -0.165338,0.36393 -0.84,0.33614 C 71.841101,344.23876 71.689453,344.0871 72.2,343.8828 Z m 222.68,0.0133 c 0.44,-0.17754 1.16,-0.17754 1.6,0 0.44,0.17754 0.08,0.32281 -0.8,0.32281 -0.88,0 -1.24,-0.14527 -0.8,-0.32281 z m 5.8,-0.0133 c 0.462,-0.18488 1.014,-0.16215 1.22667,0.0505 0.21266,0.21267 -0.16534,0.36393 -0.84,0.33614 -0.74557,-0.0307 -0.89722,-0.18236 -0.38667,-0.38666 z m -175.77895,-5.32281 c 0,-0.88 0.14527,-1.24 0.32281,-0.8 0.17754,0.44 0.17754,1.16 0,1.6 -0.17754,0.44 -0.32281,0.08 -0.32281,-0.8 z M 297.48,337.48282 c 0.462,-0.18488 1.014,-0.16215 1.22667,0.0505 0.21266,0.21267 -0.16534,0.36393 -0.84,0.33614 -0.74557,-0.0307 -0.89722,-0.18236 -0.38667,-0.38666 z M 194.73431,316.80001 c 0,-1.584 0.12481,-2.232 0.27736,-1.44 0.15255,0.792 0.15255,2.088 0,2.88 -0.15255,0.792 -0.27736,0.144 -0.27736,-1.44 z m -93.43126,-2.88 c 0.005,-1.76 0.1291,-2.40404 0.2762,-1.4312 0.14711,0.97283 0.14318,2.41283 -0.009,3.2 -0.15191,0.78716 -0.27227,-0.009 -0.26747,-1.7688 z m 71.62172,0 c 0.013,-1.056 0.15648,-1.41053 0.31874,-0.78782 0.16227,0.6227 0.1516,1.4867 -0.0237,1.92 -0.17532,0.43329 -0.30808,-0.0762 -0.29503,-1.13218 z m 93.46371,-0.96 c 0,-1.232 0.13171,-1.736 0.29269,-1.12 0.16097,0.616 0.16097,1.624 0,2.24 -0.16098,0.616 -0.29269,0.112 -0.29269,-1.12 z m -61.53795,-8.69334 c 0.0307,-0.74556 0.18236,-0.89721 0.38666,-0.38666 0.18488,0.46199 0.16214,1.014 -0.0505,1.22666 -0.21266,0.21267 -0.36393,-0.16533 -0.33614,-0.84 z m -28.10948,-4.10666 c 0,-0.88 0.14527,-1.24 0.32281,-0.8 0.17754,0.44 0.17754,1.16 0,1.6 -0.17754,0.44 -0.32281,0.08 -0.32281,-0.8 z m -0.64,-12.16 c 0,-0.88 0.14527,-1.24 0.32281,-0.8 0.17754,0.44 0.17754,1.16 0,1.6 -0.17754,0.44 -0.32281,0.08 -0.32281,-0.8 z M 66.4,155.73614 c 0.44,-0.17754 1.16,-0.17754 1.6,0 0.44,0.17755 0.08,0.32281 -0.8,0.32281 -0.88,0 -1.24,-0.14526 -0.8,-0.32281 z m 196.69053,-19.14947 c 0.0307,-0.74557 0.18236,-0.89721 0.38666,-0.38667 0.18488,0.462 0.16214,1.014 -0.0505,1.22667 -0.21266,0.21267 -0.36393,-0.16534 -0.33614,-0.84 z M 104.44477,134.72 c 0.013,-1.056 0.15648,-1.41052 0.31874,-0.78782 0.16227,0.6227 0.1516,1.4867 -0.0237,1.92 -0.17532,0.4333 -0.30808,-0.0762 -0.29503,-1.13218 z m 0,-5.12 c 0.013,-1.056 0.15648,-1.41052 0.31874,-0.78782 0.16227,0.6227 0.1516,1.4867 -0.0237,1.92 -0.17532,0.4333 -0.30808,-0.0762 -0.29503,-1.13218 z m 158.69628,-2.24 c 0,-0.88 0.14527,-1.24 0.32281,-0.8 0.17754,0.44 0.17754,1.16 0,1.6 -0.17754,0.44 -0.32281,0.08 -0.32281,-0.8 z m 0,-7.04 c 0,-0.88 0.14527,-1.24 0.32281,-0.8 0.17754,0.44 0.17754,1.16 0,1.6 -0.17754,0.44 -0.32281,0.08 -0.32281,-0.8 z M 18.610526,112.26667 c 0.03071,-0.74557 0.182362,-0.89721 0.386667,-0.38667 0.184877,0.462 0.16214,1.014 -0.05053,1.22667 -0.212667,0.21267 -0.36393,-0.16534 -0.336141,-0.84 z M 303.84,87.256143 c 0.44,-0.177543 1.16,-0.177543 1.6,0 0.44,0.177542 0.08,0.322809 -0.8,0.322809 -0.88,0 -1.24,-0.145267 -0.8,-0.322809 z m -56.67523,-5.016141 c 0.013,-1.056 0.15648,-1.410522 0.31874,-0.787821 0.16227,0.622701 0.1516,1.486701 -0.0237,1.92 -0.17532,0.433299 -0.30808,-0.07618 -0.29503,-1.132179 z"
         id="path837" />
      <path
         style="fill:#ffffff;fill-opacity:1;stroke-width:0.64"
         d="m 253.71974,426.08001 -1.87974,-2.08 2.08,1.87974 c 1.144,1.03385 2.08,1.96985 2.08,2.08 0,0.49443 -0.52808,0.0591 -2.28026,-1.87974 z m 67.47862,-76.48 c -0.79608,-1.01508 -0.77344,-1.03772 0.24164,-0.24164 0.616,0.4831 1.12,0.9871 1.12,1.12 0,0.52674 -0.52556,0.18772 -1.36164,-0.87836 z m -235.179166,-46.4 -1.219194,-1.44 1.44,1.21919 c 1.353242,1.14574 1.731354,1.66081 1.219194,1.66081 -0.121447,0 -0.769447,-0.648 -1.44,-1.44 z M 191.41053,288.90667 c 0.0307,-0.74556 0.18236,-0.89721 0.38666,-0.38666 0.18488,0.46199 0.16214,1.014 -0.0505,1.22666 -0.21266,0.21267 -0.36393,-0.16533 -0.33614,-0.84 z M 244.8,251.52001 c 0.63711,-0.704 1.30239,-1.28 1.47839,-1.28 0.176,0 -0.20128,0.576 -0.83839,1.28 -0.63711,0.704 -1.30239,1.28 -1.47839,1.28 -0.176,0 0.20128,-0.576 0.83839,-1.28 z M 350.63836,199.84 c -0.79608,-1.01507 -0.77344,-1.03771 0.24164,-0.24163 1.06608,0.83607 1.40511,1.36163 0.87836,1.36163 -0.13289,0 -0.63689,-0.504 -1.12,-1.12 z M 301.32,155.72281 c 0.462,-0.18487 1.014,-0.16214 1.22667,0.0505 0.21266,0.21266 -0.16534,0.36393 -0.84,0.33614 -0.74557,-0.0307 -0.89722,-0.18236 -0.38667,-0.38666 z m -12.68,-33.08445 c 0,-0.13289 0.504,-0.63689 1.12,-1.12 1.01508,-0.79607 1.03772,-0.77344 0.24164,0.24164 -0.83608,1.06608 -1.36164,1.40511 -1.36164,0.87836 z M 21.678365,120.48 c -0.796078,-1.01508 -0.773441,-1.03771 0.241635,-0.24164 0.616,0.48311 1.12,0.98711 1.12,1.12 0,0.52675 -0.525559,0.18772 -1.361635,-0.87836 z"
         id="path835" />
      <path
         style="fill:#ffffff;fill-opacity:1;stroke-width:0.64"
         d="m 177.87156,488.48001 -1.55156,-1.76 1.76,1.55156 c 1.64499,1.45017 2.0535,1.96844 1.55156,1.96844 -0.11464,0 -0.90664,-0.792 -1.76,-1.76 z M 158.72,401.03837 c 0,-0.1329 0.504,-0.6369 1.12,-1.12 1.01508,-0.79608 1.03772,-0.77344 0.24164,0.24164 -0.83608,1.06608 -1.36164,1.40511 -1.36164,0.87836 z m 43.13919,-21.03836 -1.21919,-1.44 1.44,1.21919 c 1.35324,1.14574 1.73135,1.66081 1.21919,1.66081 -0.12144,0 -0.76944,-0.648 -1.44,-1.44 z m -141.140825,-68.8 c -0.796078,-1.01508 -0.773441,-1.03772 0.241635,-0.24164 0.616,0.4831 1.12,0.9871 1.12,1.12 0,0.52674 -0.525559,0.18772 -1.361635,-0.87836 z M 281.28,280.96001 c 0.63711,-0.704 1.30239,-1.28 1.47839,-1.28 0.176,0 -0.20128,0.576 -0.83839,1.28 -0.63711,0.704 -1.30239,1.28 -1.47839,1.28 -0.176,0 0.20128,-0.576 0.83839,-1.28 z M 254.4,208.64 c 0.63711,-0.704 1.30239,-1.28 1.47839,-1.28 0.176,0 -0.20128,0.576 -0.83839,1.28 -0.63711,0.704 -1.30239,1.28 -1.47839,1.28 -0.176,0 0.20128,-0.576 0.83839,-1.28 z m 5.44,-44.40164 c 0,-0.13289 0.504,-0.63689 1.12,-1.12 1.01508,-0.79607 1.03772,-0.77344 0.24164,0.24164 -0.83608,1.06608 -1.36164,1.40511 -1.36164,0.87836 z M 294.08,130.56 c 0.63711,-0.704 1.30239,-1.28 1.47839,-1.28 0.176,0 -0.20128,0.576 -0.83839,1.28 -0.63711,0.704 -1.30239,1.28 -1.47839,1.28 -0.176,0 0.20128,-0.576 0.83839,-1.28 z M 169.6,19.52 c 0.82672,-0.88 1.64712,-1.6 1.82312,-1.6 0.176,0 -0.3564,0.72 -1.18312,1.6 -0.82672,0.88 -1.64712,1.6 -1.82312,1.6 -0.176,0 0.3564,-0.72 1.18312,-1.6 z"
         id="path833" />
      <path
         style="fill:#ffffff;fill-opacity:1;stroke-width:0.64"
         d="m 209.33053,460.42668 c 0.0307,-0.74557 0.18236,-0.89722 0.38666,-0.38667 0.18488,0.462 0.16214,1.014 -0.0505,1.22667 -0.21266,0.21266 -0.36393,-0.16534 -0.33614,-0.84 z m -51.06748,-2.50667 c 0.005,-1.76 0.1291,-2.40404 0.2762,-1.4312 0.14711,0.97284 0.14318,2.41284 -0.009,3.2 -0.15191,0.78716 -0.27227,-0.009 -0.26747,-1.7688 z M 282.72,404.69615 c 0.44,-0.17754 1.16,-0.17754 1.6,0 0.44,0.17754 0.08,0.32281 -0.8,0.32281 -0.88,0 -1.24,-0.14527 -0.8,-0.32281 z M 149.94925,357.92376 c 2.74409,-0.12025 7.06409,-0.11952 9.6,0.002 2.53591,0.12116 0.29075,0.21955 -4.98925,0.21865 -5.28,-6.4e-4 -7.35484,-0.10002 -4.61075,-0.22028 z m 58.88,0 c 2.74409,-0.12025 7.06409,-0.11952 9.6,0.002 2.53591,0.12116 0.29075,0.21955 -4.98925,0.21865 -5.28,-6.4e-4 -7.35484,-0.10002 -4.61075,-0.22028 z M 55.04,344.96001 c -0.576827,-0.37278 -0.655765,-0.62432 -0.197771,-0.6302 0.419226,-0.005 0.940223,0.2782 1.157771,0.6302 0.491075,0.79458 0.269519,0.79458 -0.96,0 z m 242.44,-1.07719 c 0.462,-0.18488 1.014,-0.16215 1.22667,0.0505 0.21266,0.21267 -0.16534,0.36393 -0.84,0.33614 -0.74557,-0.0307 -0.89722,-0.18236 -0.38667,-0.38666 z m -54.77152,-5.32281 c 0,-1.232 0.13171,-1.736 0.29269,-1.12 0.16097,0.616 0.16097,1.624 0,2.24 -0.16098,0.616 -0.29269,0.112 -0.29269,-1.12 z M 66.44,337.48282 c 0.461997,-0.18488 1.013997,-0.16215 1.226669,0.0505 0.212665,0.21267 -0.165338,0.36393 -0.84,0.33614 -0.745568,-0.0307 -0.897216,-0.18236 -0.386669,-0.38666 z m 234.24,0 c 0.462,-0.18488 1.014,-0.16215 1.22667,0.0505 0.21266,0.21267 -0.16534,0.36393 -0.84,0.33614 -0.74557,-0.0307 -0.89722,-0.18236 -0.38667,-0.38666 z M 143.36,320.39265 c 0,-0.13605 0.84879,-0.37194 1.8862,-0.5242 1.03741,-0.15226 1.74041,-0.041 1.56223,0.24736 -0.31713,0.51312 -3.44843,0.7645 -3.44843,0.27684 z m 13.92,-0.21562 c 1.144,-0.14196 3.016,-0.14196 4.16,0 1.144,0.14197 0.208,0.25813 -2.08,0.25813 -2.288,0 -3.224,-0.11616 -2.08,-0.25813 z m 16.96,0.0218 c 0.616,-0.16097 1.624,-0.16097 2.24,0 0.616,0.16098 0.112,0.2927 -1.12,0.2927 -1.232,0 -1.736,-0.13172 -1.12,-0.2927 z m 17.28,0 c 0.616,-0.16097 1.624,-0.16097 2.24,0 0.616,0.16098 0.112,0.2927 -1.12,0.2927 -1.232,0 -1.736,-0.13172 -1.12,-0.2927 z m 15.05146,-0.0226 c 1.15031,-0.14244 2.87831,-0.1395 3.84,0.007 0.9617,0.14603 0.0205,0.26257 -2.09146,0.25898 -2.112,-0.004 -2.89884,-0.12307 -1.74854,-0.26551 z m 16.32072,0.0203 c 0.6227,-0.16227 1.4867,-0.1516 1.92,0.0237 0.4333,0.17532 -0.0762,0.30808 -1.13218,0.29503 -1.056,-0.0131 -1.41052,-0.15648 -0.78782,-0.31874 z m -49.99113,-2.11648 c 0,-0.88 0.14527,-1.24 0.32281,-0.8 0.17754,0.44 0.17754,1.16 0,1.6 -0.17754,0.44 -0.32281,0.08 -0.32281,-0.8 z m 31.43326,-1.28 c 0,-1.584 0.12481,-2.232 0.27736,-1.44 0.15255,0.792 0.15255,2.088 0,2.88 -0.15255,0.792 -0.27736,0.144 -0.27736,-1.44 z m -112.07326,0.64 c 0,-0.88 0.145267,-1.24 0.322809,-0.8 0.177543,0.44 0.177543,1.16 0,1.6 -0.177542,0.44 -0.322809,0.08 -0.322809,-0.8 z m 62.66948,-1.65333 c 0.0307,-0.74557 0.18236,-0.89722 0.38666,-0.38667 0.18488,0.46199 0.16214,1.014 -0.0505,1.22667 -0.21267,0.21266 -0.36393,-0.16534 -0.33614,-0.84 z m 8.44378,-1.54667 c 0,-1.584 0.12481,-2.232 0.27736,-1.44 0.15255,0.792 0.15255,2.088 0,2.88 -0.15255,0.792 -0.27736,0.144 -0.27736,-1.44 z m 31.87622,-9.33334 c 0.0307,-0.74556 0.18236,-0.89721 0.38666,-0.38666 0.18488,0.46199 0.16214,1.014 -0.0505,1.22666 -0.21266,0.21267 -0.36393,-0.16533 -0.33614,-0.84 z m 9.6,-3.84 c 0.0307,-0.74556 0.18236,-0.89721 0.38666,-0.38666 0.18488,0.46199 0.16214,1.014 -0.0505,1.22666 -0.21266,0.21267 -0.36393,-0.16533 -0.33614,-0.84 z m -14.02948,-2.18666 c 0,-0.88 0.14527,-1.24 0.32281,-0.8 0.17754,0.44 0.17754,1.16 0,1.6 -0.17754,0.44 -0.32281,0.08 -0.32281,-0.8 z m 0.58948,-11.89334 c 0.0307,-0.74556 0.18236,-0.89721 0.38666,-0.38666 0.18488,0.46199 0.16214,1.014 -0.0505,1.22666 -0.21266,0.21267 -0.36393,-0.16533 -0.33614,-0.84 z m -15.36,-1.28 c 0.0307,-0.74556 0.18236,-0.89721 0.38666,-0.38666 0.18488,0.46199 0.16214,1.014 -0.0505,1.22666 -0.21266,0.21267 -0.36393,-0.16533 -0.33614,-0.84 z M 277,236.36281 c 0.462,-0.18487 1.014,-0.16214 1.22667,0.0505 0.21266,0.21267 -0.16534,0.36393 -0.84,0.33614 -0.74557,-0.0307 -0.89722,-0.18236 -0.38667,-0.38666 z M 87.52,179.38834 c 0.792,-0.15255 2.088,-0.15255 2.88,0 0.792,0.15254 0.144,0.27735 -1.44,0.27735 -1.584,0 -2.232,-0.12481 -1.44,-0.27735 z m 190.08,0 c 0.792,-0.15255 2.088,-0.15255 2.88,0 0.792,0.15254 0.144,0.27735 -1.44,0.27735 -1.584,0 -2.232,-0.12481 -1.44,-0.27735 z m -169.2712,-7.68759 c 0.97284,-0.14711 2.41284,-0.14317 3.2,0.009 0.78716,0.15191 -0.009,0.27227 -1.7688,0.26747 -1.76,-0.005 -2.40404,-0.12911 -1.4312,-0.27621 z m 148.48,0 c 0.97284,-0.14711 2.41284,-0.14317 3.2,0.009 0.78716,0.15191 -0.009,0.27227 -1.7688,0.26747 -1.76,-0.005 -2.40404,-0.12911 -1.4312,-0.27621 z M 303.84,155.73614 c 0.44,-0.17754 1.16,-0.17754 1.6,0 0.44,0.17755 0.08,0.32281 -0.8,0.32281 -0.88,0 -1.24,-0.14526 -0.8,-0.32281 z M 240.14848,149.76 c 0,-1.232 0.13171,-1.736 0.29269,-1.12 0.16097,0.616 0.16097,1.624 0,2.24 -0.16098,0.616 -0.29269,0.112 -0.29269,-1.12 z m -135.62364,-25.6 c 0,-2.288 0.11616,-3.224 0.25814,-2.08 0.14196,1.144 0.14196,3.016 0,4.16 -0.14198,1.144 -0.25814,0.208 -0.25814,-2.08 z m -37.406478,0.16 c -0.796077,-1.01508 -0.77344,-1.03771 0.241638,-0.24164 0.616,0.48311 1.12,0.98711 1.12,1.12 0,0.52675 -0.525562,0.18772 -1.361638,-0.87836 z M 287.04,124.16 c 0.63711,-0.704 1.30239,-1.28 1.47839,-1.28 0.176,0 -0.20128,0.576 -0.83839,1.28 -0.63711,0.704 -1.30239,1.28 -1.47839,1.28 -0.176,0 0.20128,-0.576 0.83839,-1.28 z m -23.89895,-0.64 c 0,-0.88 0.14527,-1.24 0.32281,-0.8 0.17754,0.44 0.17754,1.16 0,1.6 -0.17754,0.44 -0.32281,0.08 -0.32281,-0.8 z M 310.92,117.96281 c 0.462,-0.18487 1.014,-0.16214 1.22667,0.0505 0.21266,0.21266 -0.16534,0.36393 -0.84,0.33614 -0.74557,-0.0307 -0.89722,-0.18236 -0.38667,-0.38666 z m 21.93053,-2.49614 c 0.0307,-0.74557 0.18236,-0.89721 0.38666,-0.38667 0.18488,0.462 0.16214,1.014 -0.0505,1.22667 -0.21266,0.21267 -0.36393,-0.16534 -0.33614,-0.84 z M 15.918365,94.240002 C 15.122287,93.224923 15.144924,93.202287 16.16,93.998363 c 0.616,0.483105 1.12,0.987105 1.12,1.120001 0,0.526745 -0.525559,0.187718 -1.361635,-0.878362 z M 51.36,72.51883 c 0.616,-0.160973 1.624,-0.160973 2.24,0 0.616,0.160979 0.112,0.292691 -1.12,0.292691 -1.232,0 -1.736,-0.131712 -1.12,-0.292691 z m 263.05218,-0.0026 c 0.6227,-0.162265 1.4867,-0.151597 1.92,0.02368 0.4333,0.175315 -0.0762,0.308077 -1.13218,0.295034 -1.056,-0.01306 -1.41052,-0.15648 -0.78782,-0.318746 z"
         id="path831" />
      <path
         style="fill:#ffffff;fill-opacity:1;stroke-width:0.64"
         d="m 183.68,495.53792 c 0,-0.41079 -1.88849,-2.96907 -4.19665,-5.68505 -5.74793,-6.76354 -6.33555,-8.01102 -6.29922,-13.37286 0.0263,-3.87895 0.3781,-5.20985 2.62232,-9.92 2.52476,-5.29894 3.83402,-9.62542 2.89755,-9.57504 -0.2552,0.0137 -1.38586,1.27885 -2.51256,2.81139 -3.39957,4.62405 -9.76245,9.18563 -14.367,10.29979 -1.60941,0.38943 -1.73134,0.24341 -2.4,-2.87444 -1.01961,-4.75432 -0.87136,-15.10614 0.28023,-19.56724 1.42734,-5.52926 4.20633,-11.13099 8.82851,-17.79601 4.52006,-6.51775 5.54682,-8.91747 5.54682,-12.96384 0,-3.53168 -1.08674,-5.88181 -3.2331,-6.99173 -3.05654,-1.5806 -6.87278,0.42104 -8.61433,4.51824 -3.76918,8.86744 -7.32631,12.72712 -13.95789,15.14512 -2.1676,0.79034 -5.78656,2.83382 -8.04214,4.54106 l -4.10105,3.10407 0.36546,-3.40568 c 0.20101,-1.87313 1.09819,-5.55093 1.99373,-8.17289 0.89554,-2.62196 1.52026,-4.8752 1.38826,-5.0072 -0.132,-0.13199 -1.10805,0.20891 -2.16901,0.75755 -2.17229,1.12333 -3.70871,3.12544 -5.83313,7.60112 -2.72269,5.73611 -6.9566,8.90402 -19.59312,14.66005 -1.69788,0.77339 -5.16682,3.99698 -7.79149,7.2404 l -2.06782,2.55528 0.36725,-2.24 c 1.57744,-9.6216 5.61787,-18.79031 10.6035,-24.06187 4.74695,-5.0192 10.05392,-8.15112 23.39461,-13.80636 12.97766,-5.50135 16.28974,-7.22089 20.49991,-10.64304 3.39428,-2.75895 8.14756,-9.00556 10.11226,-13.28919 1.90522,-4.15392 3.82221,-11.02876 3.23814,-11.61284 -1.06293,-1.06292 -5.02933,2.1805 -8.10189,6.62512 -3.76539,5.44683 -7.86832,8.85351 -11.32957,9.40699 -1.33629,0.21368 -4.12395,1.40878 -6.19481,2.65579 -2.07086,1.24701 -3.87448,2.15802 -4.00804,2.02446 -0.35971,-0.35971 4.13382,-8.67034 6.25801,-11.57396 1.01189,-1.38319 1.72418,-2.63052 1.58285,-2.77185 -0.87129,-0.87128 -6.37597,4.52367 -10.28659,10.08153 -3.36979,4.78921 -7.64265,7.48421 -14.59741,9.20694 -3.39339,0.84056 -7.36461,2.11944 -8.82492,2.84194 l -2.65512,1.31364 0.33053,-2.46421 c 0.48715,-3.632 3.80005,-7.94379 8.80296,-11.45721 2.4318,-1.70778 4.23902,-3.28749 4.01604,-3.51047 -0.85444,-0.85444 -6.39349,-0.3222 -9.01109,0.86586 -1.50645,0.68374 -4.38645,2.50526 -6.4,4.04782 -8.4244,6.45386 -13.10851,8.40227 -22.521988,9.36827 -3.569261,0.36628 -7.26569,0.85266 -8.214285,1.08086 -3.241978,0.77988 -7.972563,3.53749 -11.121831,6.48326 l -3.147148,2.94379 1.5224,-4.19416 c 2.171916,-5.98358 4.662828,-9.9383 8.65895,-13.74745 7.836845,-7.4702 18.771104,-10.9085 41.402912,-13.01922 22.44883,-2.09367 32.37831,-5.36754 40.29727,-13.28649 3.61718,-3.61719 7.87883,-10.98748 7.09061,-12.26285 -0.27387,-0.44313 -4.53543,-0.70262 -12.06565,-0.7347 -9.16467,-0.039 -12.28039,-0.2774 -14.64098,-1.12 -4.6738,-1.66832 -8.32754,-4.61115 -10.12125,-8.15197 -1.38944,-2.74278 -1.6,-4.00068 -1.6,-9.55843 0,-4.99883 0.26586,-6.93531 1.21432,-8.84509 2.77083,-5.57919 7.99151,-8.74818 15.4064,-9.35179 l 4.46073,-0.36312 -0.17092,-3.2 c -0.3158,-5.91253 -1.43383,-14.02497 -2.99889,-21.76 -4.59216,-22.6959 -13.84468,-39.85422 -26.23164,-48.64529 -16.26161,-11.54092 -32.733126,-13.27656 -42.474682,-4.47566 -8.002534,7.22982 -5.291334,22.65576 5.86656,33.37897 10.093031,9.69984 13.033204,13.31092 16.632384,20.42767 3.629878,7.17746 4.729558,18.35828 2.666488,27.111 -3.100548,13.15422 -13.784625,20.48664 -29.89075,20.51385 -5.355283,0.009 -5.603315,0.0724 -5.675827,1.44946 -0.143623,2.72732 0.169459,3.36658 2.698061,5.50911 6.297472,5.33596 5.814156,11.8086 -1.166164,15.61759 -1.680838,0.91719 -3.688883,2.25997 -4.462322,2.98395 -0.85707,0.80226 -1.564673,1.06 -1.81191,0.65996 -0.223111,-0.361 -2.252066,-1.82248 -4.508788,-3.24773 -2.256723,-1.42524 -4.681364,-3.40341 -5.388091,-4.39592 -2.35246,-3.30372 -1.432804,-7.16965 2.577647,-10.83556 2.424601,-2.21631 4.281084,-6.08928 3.230182,-6.73878 -1.107516,-0.68448 -5.287132,1.1215 -7.553456,3.26379 -3.75264,3.54727 -4.736808,4.06359 -7.745736,4.06359 -3.069302,0 -4.840894,-1.42653 -8.753596,-7.0486 -1.056,-1.51735 -2.208,-3.15234 -2.56,-3.63332 -0.431824,-0.59006 -0.416809,-1.02473 0.04616,-1.3363 0.377388,-0.25398 1.994576,-2.49877 3.593751,-4.98841 4.579325,-7.12924 8.618659,-7.82573 14.59625,-2.51678 3.276786,2.91025 7.595728,4.70151 8.358827,3.46679 0.883506,-1.42954 -0.338019,-4.02546 -3.277294,-6.96473 -5.471842,-5.47185 -4.817476,-10.30016 1.953385,-14.41323 2.028375,-1.23218 4.020851,-2.64144 4.427725,-3.13169 0.613951,-0.73976 1.542008,-0.36243 5.456613,2.21856 4.970724,3.27733 7.40458,6.30347 7.40458,9.20652 0,2.53129 -1.725651,5.78088 -3.603558,6.7859 -1.901652,1.01774 -3.436442,3.69359 -3.436442,5.99131 0,2.08233 1.888608,2.59509 7.456915,2.0246 7.995936,-0.8192 13.586855,-3.71624 17.01088,-8.81449 3.700967,-5.51061 4.334215,-13.29081 1.572717,-19.32272 C 86.205626,299.74898 74.695616,293.78159 51.642508,289.2841 35.453823,286.1258 32.898997,285.44325 27.508127,282.83629 20.797315,279.59101 17.360417,277.19167 12.734997,272.52296 8.0944032,267.83893 4.2317383,261.44867 2.0813637,254.89796 -0.16770291,248.0466 -0.2895109,236.06206 1.8040353,227.61197 6.4404634,208.89814 17.449317,196.08393 34.56,189.48431 c 9.640857,-3.7185 18.335039,-4.63204 30.4,-3.1943 40.65452,4.84468 69.52666,35.13542 83.22105,87.31 3.58303,13.65108 5.52462,25.40487 7.06165,42.74913 l 0.38542,4.34914 3.94594,-0.18914 3.94594,-0.18913 -0.16613,-8.32 c -0.69083,-34.59684 -8.1252,-70.32477 -20.42287,-98.14771 -3.43306,-7.76717 -7.9563,-16.35191 -10.59772,-20.11363 -1.66552,-2.37191 -15.01419,-8.8723 -22.6861,-11.04742 -3.23005,-0.91578 -9.854054,-2.16021 -14.719999,-2.76539 L 86.08,178.82553 l 2.636397,-1.76249 c 5.080902,-3.39668 8.844793,-4.39677 18.161123,-4.82553 l 8.63751,-0.39751 -8.41712,-8.63978 -8.417129,-8.63979 -5.647975,-0.23195 c -3.10638,-0.12757 -9.541555,0.0999 -14.300384,0.50553 -13.574195,1.15698 -19.916047,1.00085 -23.48574,-0.5782 -4.263799,-1.88608 -7.092143,-4.20767 -9.226761,-7.57361 -1.015003,-1.60049 -1.759547,-2.99591 -1.654543,-3.10091 0.105003,-0.105 1.75775,0.41738 3.672769,1.16085 5.271002,2.04637 14.565258,2.31685 22.681853,0.66008 3.52,-0.71851 8.619757,-1.50464 11.332794,-1.74694 l 4.932787,-0.44056 -8.696813,-8.40736 C 63.831708,120.83148 61.175138,118.42016 59.84,118.06176 c -0.704,-0.18898 -3.034674,-0.10005 -5.179276,0.19762 l -3.899276,0.54122 -0.777961,-2.90871 c -1.08514,-4.05721 -3.433941,-6.89983 -6.447161,-7.80261 -3.176195,-0.95161 -6.066485,0.0978 -7.406507,2.68908 -1.044391,2.01964 -1.227605,7.55177 -0.351292,10.6073 0.508681,1.77366 0.412096,2.06186 -0.8,2.38703 -2.629821,0.70553 -6.511653,0.35314 -9.058527,-0.82231 -4.752527,-2.19344 -6.72,-5.46786 -6.72,-11.18393 0,-4.26327 2.291069,-8.01136 6.216629,-10.17013 l 2.789039,-1.53376 -3.887483,-1.080824 C 19.912132,97.756751 15.42585,94.132591 13.400082,90.161755 11.785704,86.997314 10.734766,79.760034 11.367603,76.165083 l 0.506086,-2.874912 4.143155,-1.160064 c 4.991393,-1.397562 10.073418,-1.142445 14.276268,0.716678 3.350222,1.481959 8.16581,6.125274 9.371618,9.036353 1.037395,2.504492 1.93527,2.506854 1.93527,0.0051 0,-2.398752 1.250748,-4.896525 3.508063,-7.00569 1.458602,-1.362874 2.439941,-1.630637 6.682246,-1.82329 7.609539,-0.345568 11.667911,2.238516 13.413493,8.540762 1.261977,4.556263 1.019552,5.44 -1.492301,5.44 C 56.755236,87.040002 51.2,89.982402 51.2,93.666882 51.2,98.597698 55.409146,102.4 60.867564,102.4 h 2.967533 l 0.43698,3.36 c 0.421497,3.24092 0.656921,3.5663 6.642451,9.18055 15.008365,14.0774 21.574125,20.00674 21.691091,19.58856 C 93.029907,133.01223 94.72,115.7117 94.72,112.88538 c 0,-3.41724 -1.692941,-8.86229 -4.413325,-14.19469 l -1.358899,-2.663654 1.610458,0.612294 c 3.389145,1.28855 5.296684,2.564947 7.533657,5.04101 4.959169,5.48921 5.629409,8.26157 6.208219,25.67966 0.26319,7.92 0.83764,16.1636 1.27656,18.31911 0.76467,3.75525 1.0608,4.18089 7.08286,10.18035 l 6.28482,6.26123 0.40152,-2.50034 c 1.19343,-7.43169 3.55617,-13.18088 7.16441,-17.43299 l 1.80972,-2.13265 -0.22234,7.92664 c -0.36557,13.03296 3.12679,26.73006 9.08372,35.62656 20.36954,30.42128 33.4425,76.82577 35.49139,125.98216 l 0.44723,10.72994 2.08,0.20055 2.08,0.20055 v -10.45148 c 0,-11.47924 -0.62883,-22.79713 -2.58854,-46.58962 -2.96098,-35.94846 -6.60894,-56.81741 -13.77927,-78.82724 -5.81645,-17.85399 -11.26176,-30.28236 -26.14098,-59.66415 -5.01029,-9.89374 -9.73968,-20.02606 -10.50976,-22.51627 -7.10947,-22.990057 -2.68791,-41.23891 14.01904,-57.860016 3.01427,-2.998783 7.19027,-6.667113 9.28,-8.151843 2.08973,-1.48473 6.53551,-4.627582 9.87951,-6.984114 11.61315,-8.183844 19.77165,-16.531913 24.45555,-25.0238124 l 2.19936,-3.98743563 1.13493,2.38743553 c 1.88688,3.9692731 6.45627,9.9612855 11.41369,14.9671935 4.3776,4.420425 10.59574,9.315073 22.63877,17.820243 10.58544,7.475769 19.92263,18.445439 24.03833,28.241075 4.86434,11.577498 4.90352,26.268142 0.10621,39.822664 -0.89082,2.51694 -6.45757,14.22426 -12.37056,26.01626 -16.89257,33.68809 -22.88283,48.59145 -28.4252,70.72 -5.01994,20.04267 -6.99815,34.70573 -10.31799,76.48001 -1.02433,12.88921 -1.57443,24.52249 -1.58319,33.48055 l -0.01,10.12055 2.08,-0.20055 2.08,-0.20055 0.14371,-4.16 c 1.81647,-52.58423 14.17899,-99.09534 34.80025,-130.92786 8.355,-12.89742 12.04929,-29.21226 9.82516,-43.39019 -0.25372,-1.61733 -0.16662,-1.73702 0.72528,-0.99681 3.268,2.7122 6.89151,10.28742 8.15958,17.05822 l 0.74602,3.98337 6.19842,-6.11678 c 7.62169,-7.5213 7.50454,-7.12338 8.17547,-27.76996 0.42787,-13.16714 0.66176,-15.48987 1.87822,-18.65268 2.4358,-6.33312 5.93449,-10.200131 11.23076,-12.413052 2.54092,-1.061664 2.70718,-0.905575 1.30876,1.228691 -1.67861,2.561871 -4.79116,11.852681 -4.80259,14.335471 -0.006,1.30987 0.48604,6.89681 1.09349,12.41544 l 1.10446,10.03387 2.58651,-2.28709 c 1.42257,-1.2579 7.53769,-6.88574 13.58914,-12.5063 C 302.63661,109.9432 304,108.18565 304,104.2245 c 0,-1.74151 0.13388,-1.8245 2.94328,-1.8245 5.7536,0 9.8493,-3.500856 9.85433,-8.423109 0.002,-1.81431 -0.4267,-2.70416 -1.89893,-3.942956 -1.9754,-1.662196 -6.73364,-2.993933 -10.69718,-2.993933 h -2.29548 l 0.39502,-2.882048 c 0.61268,-4.469952 2.58908,-7.715514 5.86889,-9.637607 2.61102,-1.530163 3.39404,-1.672083 8.05693,-1.460333 5.01726,0.227847 5.2268,0.302157 7.33302,2.600448 1.23804,1.350932 2.48261,3.614599 2.90112,5.276647 l 0.73294,2.910758 1.73949,-2.723929 c 2.38944,-3.741684 5.49054,-6.623386 8.95156,-8.318234 2.33577,-1.143821 3.9324,-1.412519 8.03501,-1.352218 6.60799,0.09712 9.99021,1.295815 10.72183,3.799924 0.86499,2.960614 -0.0339,10.431942 -1.69024,14.050029 -0.82131,1.793984 -2.57862,4.31584 -3.90512,5.604128 -2.2527,2.187795 -7.9423,4.894585 -10.43048,4.962233 -0.60279,0.01638 0.24743,0.72942 1.88941,1.58452 6.17444,3.21549 8.20549,10.03419 4.97596,16.7055 -1.15307,2.38192 -2.04952,3.23495 -4.69333,4.46599 -3.27707,1.5259 -8.22822,2.02194 -9.85864,0.9877 -0.6466,-0.41016 -0.69287,-1.38225 -0.20883,-4.38784 0.74993,-4.65664 0.0412,-8.38933 -1.8899,-9.95378 -4.7043,-3.81111 -10.97371,-0.43392 -12.82218,6.90701 l -0.66484,2.64034 -3.8542,-0.58335 c -2.1198,-0.32083 -4.47412,-0.41952 -5.23181,-0.21929 -0.7577,0.20023 -7.13763,5.94575 -14.17763,12.76783 l -12.8,12.40376 4.8,0.45961 c 2.64,0.25279 7.68,1.04648 11.2,1.76375 9.51653,1.93921 18.17432,1.3451 25.54127,-1.75268 1.10948,-0.46653 1.08018,-0.2617 -0.32,2.23733 -1.73111,3.0897 -5.31818,6.40565 -8.8086,8.14283 -2.0721,1.03129 -3.69099,1.13077 -14.49267,0.89055 -6.688,-0.14874 -16.15381,-0.29274 -21.03514,-0.32 l -8.87513,-0.0496 -8.26881,8.64 -8.26881,8.64 8.18394,0.40671 c 4.78911,0.238 9.61847,0.85772 11.64213,1.49395 3.3873,1.06496 7.90988,3.53796 8.6448,4.72708 0.21158,0.34234 -1.89347,0.7873 -4.9062,1.03706 -12.3109,1.0206 -23.3586,4.20928 -34.01286,9.8171 -6.39974,3.36847 -6.84931,3.9119 -12.8048,15.4781 -11.46803,22.27213 -19.73993,51.69761 -23.1188,82.24001 -1.18724,10.7318 -2.32854,31.29329 -1.81174,32.64006 0.2686,0.69995 1.36963,0.95994 4.06525,0.95994 4.22673,0 4.4619,-0.32409 4.47743,-6.1704 0.005,-1.80973 0.56295,-7.42573 1.24032,-12.48 8.72955,-65.13638 38.33239,-106.24285 82.65573,-114.7757 8.79219,-1.69262 19.81487,-1.9847 26.18536,-0.69387 22.24368,4.50714 37.39205,18.74185 42.95051,40.35996 1.75899,6.84113 2.0949,19.49027 0.67133,25.28001 -1.2334,5.01633 -5.31003,13.15355 -8.70134,17.36845 -3.61775,4.49633 -10.74151,9.99608 -16.85083,13.0093 -5.32617,2.62696 -10.35513,3.99828 -24.70902,6.73774 -28.13822,5.37021 -40.68784,13.9686 -40.70707,27.8905 -0.009,6.52682 1.41813,10.12011 5.70633,14.36745 2.69065,2.66502 4.44515,3.80502 7.13877,4.63845 4.36343,1.3501 10.7352,2.07095 13.08729,1.48061 1.62066,-0.40676 1.71694,-0.61823 1.39024,-3.05392 -0.27411,-2.04368 -0.97423,-3.19317 -3.19624,-5.24774 -1.56489,-1.44696 -3.05427,-3.30388 -3.30973,-4.12649 -1.20531,-3.88109 1.8755,-8.83806 7.17246,-11.54037 1.36964,-0.69874 2.87422,-1.73307 3.3435,-2.29852 0.77943,-0.93915 0.96952,-0.92533 2.19719,0.15981 0.73917,0.65336 2.82924,2.11584 4.64461,3.24996 6.07246,3.79369 6.9858,9.29631 2.24489,13.52477 -2.89895,2.58558 -3.94556,4.36023 -3.94556,6.69012 0,1.47998 0.18542,1.60994 1.76,1.23354 2.65225,-0.63402 4.05843,-1.46669 6.98255,-4.13473 5.51826,-5.035 9.97249,-4.00519 14.70185,3.39903 1.63428,2.55862 3.22295,4.81494 3.53036,5.01404 0.30742,0.1991 -0.19155,1.0631 -1.10881,1.92 -0.91727,0.8569 -2.38839,2.78316 -3.26918,4.28056 -2.28741,3.88885 -4.30566,5.27744 -7.6705,5.27744 -2.44287,0 -3.22502,-0.37415 -5.83369,-2.7906 -3.25297,-3.01328 -4.60313,-3.84059 -7.33258,-4.49306 -1.63452,-0.39073 -1.76,-0.27802 -1.76,1.58086 0,1.53685 0.65347,2.61701 2.81446,4.65219 3.37643,3.17986 4.22554,4.72302 4.22554,7.67943 0,2.82114 -2.14547,5.45176 -6.59349,8.08446 -1.82958,1.0829 -3.82099,2.31193 -4.42536,2.7312 -0.90294,0.62638 -1.33414,0.50973 -2.41856,-0.65426 -0.72584,-0.77911 -2.24736,-1.88451 -3.38115,-2.45645 -7.27606,-3.67043 -8.14611,-10.17931 -2.06436,-15.44351 2.77528,-2.40221 3.1025,-3.04036 2.95875,-5.77026 -0.0725,-1.37708 -0.32055,-1.44042 -5.67583,-1.44946 -13.44706,-0.0227 -22.61904,-4.7684 -27.30015,-14.1254 -2.98229,-5.96124 -3.79662,-10.36303 -3.42126,-18.49319 0.55998,-12.12868 4.01902,-18.83813 16.00877,-31.05195 4.49205,-4.576 9.03281,-9.616 10.09057,-11.2 3.8683,-5.79279 5.39691,-14.28061 3.74986,-20.82166 -1.82055,-7.23002 -13.03017,-12.58748 -23.28779,-11.13001 -7.19656,1.02253 -16.89503,5.29614 -24.21768,10.67145 -9.13878,6.70848 -17.68244,20.94856 -22.42602,37.37838 -2.89298,10.0201 -5.5163,25.55236 -5.5163,32.66115 v 3.08069 h 3.51313 c 6.93348,0 13.19776,3.56339 15.94071,9.06776 1.42816,2.86596 1.66616,4.17613 1.66616,9.17224 0,4.99848 -0.2377,6.30567 -1.66883,9.17757 -1.99762,4.00872 -6.13548,7.38963 -10.7048,8.74658 -2.32716,0.69109 -6.36694,0.95585 -14.58476,0.95585 -7.26622,0 -11.51626,0.24301 -11.78245,0.67371 -0.84303,1.36405 3.16463,8.00332 7.33412,12.15003 7.43533,7.39472 15.52018,10.55324 31.88904,12.45816 4.83872,0.5631 12.39768,1.44591 16.79768,1.96179 16.26833,1.90739 26.20971,5.59149 33.03503,12.24217 3.8731,3.774 7.794,10.29704 9.11589,15.16574 l 0.67648,2.49159 -2.98923,-2.98923 c -3.75625,-3.75625 -8.76744,-6.15377 -14.36849,-6.87437 -2.39232,-0.30777 -6.41486,-0.8281 -8.93897,-1.15628 -5.48921,-0.71369 -11.73703,-3.61688 -18.0206,-8.37367 -5.23704,-3.96454 -8.92078,-5.7168 -12.05776,-5.73559 -4.27101,-0.0256 -4.6745,0.59326 -1.64114,2.51695 6.30918,4.00117 9.88057,8.29981 10.72297,12.90653 0.24967,1.36535 0.40252,2.48247 0.33966,2.48247 -0.0628,0 -1.53618,-0.68303 -3.27406,-1.51785 -1.73788,-0.83481 -5.28067,-1.99774 -7.87287,-2.58428 -7.85383,-1.77709 -11.16866,-4.05616 -16.61332,-11.42226 -2.67888,-3.62426 -7.38337,-8.15561 -8.46723,-8.15561 -0.38226,0 -0.45018,0.34354 -0.15816,0.8 0.28149,0.44 1.55176,2.384 2.82281,4.32 2.81377,4.28578 5.24207,8.98025 4.84867,9.37365 -0.15928,0.15929 -1.34301,-0.42525 -2.63051,-1.29896 -1.28749,-0.87372 -3.69726,-2.0594 -5.35503,-2.63485 -5.80472,-2.01495 -8.52289,-3.72493 -10.89438,-6.85358 -1.29787,-1.71225 -3.4427,-4.53788 -4.7663,-6.27917 -2.13208,-2.80491 -5.04714,-4.58675 -5.97913,-3.65475 -0.68712,0.68712 1.88616,8.6794 4.27637,13.2818 2.76814,5.33013 7.9849,11.09408 13.13684,14.51477 1.82224,1.2099 8.67074,4.44999 15.2189,7.2002 6.54815,2.7502 13.87624,6.17102 16.28465,7.60183 10.16625,6.03966 16.762,16.65296 18.96017,30.50906 l 0.40613,2.56 -1.7887,-2.23611 c -3.78226,-4.72834 -7.28977,-7.50563 -11.62916,-9.20813 -8.48725,-3.32986 -13.4781,-7.56785 -16.59391,-14.09076 -1.04986,-2.19787 -2.82571,-4.76762 -3.94633,-5.71056 -2.37517,-1.99858 -4.25523,-2.31657 -3.51448,-0.59444 1.28836,2.99524 3.49519,11.43053 3.49519,13.35987 v 2.17486 l -3.38774,-2.75935 c -1.86326,-1.51765 -5.10326,-3.44617 -7.2,-4.2856 -7.907,-3.16559 -12.10903,-7.19161 -14.37249,-13.77045 -1.52065,-4.41985 -2.23934,-5.3699 -4.90513,-6.48423 -6.41392,-2.68108 -10.2495,5.56586 -6.29031,13.5249 0.8755,1.76 2.92259,5.072 4.54907,7.36 3.80005,5.34559 7.57978,13.35128 8.61165,18.24 1.52897,7.24379 0.5009,21.46508 -1.54888,21.42595 -1.24222,-0.0238 -6.01775,-2.37547 -9.02457,-4.44421 -1.56911,-1.07958 -4.08633,-3.54211 -5.59383,-5.4723 -1.5075,-1.9302 -2.93009,-3.50944 -3.16131,-3.50944 -0.82166,0 0.71433,4.96776 3.06914,9.92631 4.36543,9.19236 3.61828,14.42761 -3.179,22.27532 -1.88569,2.1771 -3.9096,4.67045 -4.49757,5.54078 -0.58797,0.87031 -1.06903,1.24629 -1.06903,0.8355 z"
         id="path829" />
    </g>
  </g>
</svg>
