<?xml version="1.0" encoding="UTF-8" standalone="no"?>
<!-- Created with Inkscape (http://www.inkscape.org/) -->

<svg
   width="150mm"
   height="25mm"
   viewBox="0 0 150 25"
   version="1.1"
   id="svg894"
   inkscape:version="1.1 (c68e22c387, 2021-05-23)"
   sodipodi:docname="flsil.svg"
   xmlns:inkscape="http://www.inkscape.org/namespaces/inkscape"
   xmlns:sodipodi="http://sodipodi.sourceforge.net/DTD/sodipodi-0.dtd"
   xmlns="http://www.w3.org/2000/svg"
   xmlns:svg="http://www.w3.org/2000/svg">
  <sodipodi:namedview
     id="namedview896"
     pagecolor="#23373b"
     bordercolor="#666666"
     borderopacity="1.0"
     inkscape:pageshadow="2"
     inkscape:pageopacity="0"
     inkscape:pagecheckerboard="false"
     inkscape:document-units="mm"
     showgrid="false"
     showborder="true"
     inkscape:zoom="1.2389059"
     inkscape:cx="326.09418"
     inkscape:cy="-29.461479"
     inkscape:window-width="1841"
     inkscape:window-height="1051"
     inkscape:window-x="70"
     inkscape:window-y="-9"
     inkscape:window-maximized="1"
     inkscape:current-layer="layer1" />
  <defs
     id="defs891" />
  <g
     inkscape:label="Layer 1"
     inkscape:groupmode="layer"
     id="layer1">
    <path
       style="fill:#ffffff;fill-opacity:1;stroke:#000000;stroke-width:0.1;stroke-linecap:butt;stroke-linejoin:miter;stroke-miterlimit:4;stroke-dasharray:none;stroke-opacity:1;opacity:1"
       d="m 56.46007,25.211044 h 91.99048 v -6.895203 l 1.05553,-1.055526 v -0.395219 h -16.07869 v -2.284563 l 0.47233,-0.472334 v -0.38558 h -1.28205 v -0.915753 l -2.42915,-0.751883 h -1.658 l -2.82437,0.963951 v 0.703685 h -0.92539 v 0.481975 l 0.41449,0.481976 v 1.937538 l -1.47484,-1.609796 -1.48586,1.812226 v -3.680196 l 0.33756,-0.194884 v -1.232653 l -0.32895,-0.328948 V 10.090935 L 122.0094,9.8571763 v -0.38076 l -0.1979,-0.1979007 -0.16417,0.1641607 V 9.895151 l -0.23192,0.231932 v 1.311537 l -0.24947,0.144028 -2.96173,-2.7665391 V 8.1485762 l 0.10362,-0.1036267 V 7.4232022 l -0.11085,-0.110855 -0.14459,-0.05783 v -0.520533 h -0.3693 v 0.50313 l -0.0886,0.05114 -0.11086,0.110855 v 0.5880103 l 0.0868,0.1156727 v 0.6747647 l -3.01114,2.8087101 -0.25424,-0.254243 v -1.255543 l -0.20966,-0.2096607 v -0.371122 l -0.14511,-0.1451077 -0.14029,0.1402897 v 0.365269 l -0.19382,0.1938227 v 1.328187 l -0.26233,0.262329 v 1.199866 l 0.22584,0.130386 v 3.836523 l -1.51341,-1.812226 -1.27241,1.503762 h -0.10095 v -1.024417 l 0.1877,-0.325112 v -2.36168 h -0.42413 v 0.539814 h -0.3663 v -0.530175 h -0.43378 v 0.539814 h -0.24099 v -0.539814 h -0.48197 v 0.549452 h -0.38558 v -0.530172 h -0.37594 v 0.520534 h -0.23135 V 12.83579 h -0.49162 v 0.501253 h -0.25797 V 12.729752 8.9084879 l 0.2305,-0.230497 V 7.7835865 l 0.20882,-0.208825 V 5.7465512 h -0.30733 V 2.7581463 h -0.4376 l -0.24009,-0.4158509 h -0.28369 V 0.99477725 H 106.1961 V 2.3169004 h -0.19582 l -0.23759,0.4115249 h -0.50433 v 3.0102439 h -0.34082 v 1.822302 l 0.20291,0.2029143 v 0.9732084 l 0.20881,0.208825 v 3.8061461 h -0.18913 v 0.591016 h -0.40977 v -0.567375 h -0.37825 v 0.583136 h -0.26793 v -0.583136 h -0.40189 v 0.583136 h -0.40189 v -0.583136 h -0.37825 v 0.583136 h -0.22853 v -0.575257 h -0.50433 v 0.575257 h -0.38613 v -0.575257 h -0.44129 v 0.567375 h -0.24429 v -0.567375 h -0.46493 v 0.567375 h -0.38614 V 12.526685 H 99.923433 V 11.932437 L 99.792253,11.442885 99.18263,10.386975 98.55854,9.3839863 97.64471,8.3029872 96.40769,7.0659702 95.3044,6.2412902 94.511613,5.7476472 94.111963,5.5169092 V 4.5250652 L 93.479773,4.1238701 V 3.2213813 l 0.2087,-0.05592 V 2.8088424 h -0.24517 V 2.0064543 h -0.28975 L 92.574043,0.86973228 V 0.13420659 h -0.35662 v 0.80239166 l -0.55722,1.06985605 h -0.28975 v 0.713229 h -0.24517 v 0.468061 l 0.2006,0.02228 v 0.9584108 l -0.6018,0.2897531 v 1.047565 l -0.35661,0.111443 -0.423491,0.289753 -1.159007,0.913834 -1.493337,1.560205 -1.31503,1.7607988 -0.66866,1.381895 -0.205475,1.073937 -0.151141,0.0405 v 3.387872 H 73.249801 V 12.548965 L 72.78174,8.3364112 h 0.378907 v -0.95841 h -0.601795 v -0.735523 l 0.200599,-0.2006 v -0.28975 H 72.536564 L 72.269102,4.3690371 h -0.267465 l -0.267462,1.7830911 h -0.211743 v 0.234029 l 0.189452,0.189455 v 0.846966 h -0.601792 v 0.846968 h 0.423484 l -0.423484,4.3462848 v 3.521605 H 68.335158 V 7.9017865 l 0.323185,-0.323186 V 6.5866742 H 68.033847 L 66.66351,5.7955092 V 3.2434603 l -0.287073,-0.287073 -0.253641,0.25364 v 2.5621299 l -1.27581,0.736587 h -0.84238 v 0.825481 l 0.2183,0.3781063 V 13.61882 H 62.05763 v -0.947189 l -0.160608,-0.599392 -0.371041,-0.214222 v -0.601794 h -0.303043 v 0.578772 l -0.292378,0.168804 -0.140105,0.522878 v 0.993816 h -0.610221 l -3.111979,0.833852 h -0.846968 v 0.378908 l 0.267464,0.200596 0.0065,1.068289 H 17.732995 v -1.834155 l 0.116728,-0.202178 v -0.238294 h -0.450419 v -0.413777 l -0.187696,-0.05029 v -0.496959 l 0.06313,-0.109344 -0.125034,-0.466635 h -0.391085 l -0.112893,0.421322 0.05421,0.202313 v 0.419511 l -0.219778,0.126889 V 13.70082 L 15.223643,12.579618 V 11.818803 L 15.587956,11.608466 15.68974,11.228602 14.022356,10.390606 12.847765,10.056915 12.515815,9.4819603 12.321906,9.2880526 V 8.6554139 h -0.208261 v 0.6406857 l -0.213562,0.2135617 -0.315265,0.5460557 -1.201054,0.321821 -1.64707,0.894011 0.103269,0.385404 0.346104,0.199824 v 0.762884 L 7.842403,13.70082 v -0.306996 l -0.25378,-0.146521 v -0.427428 l 0.0812,-0.140641 -0.124005,-0.462791 H 7.255109 l -0.160172,0.443261 0.09343,0.160171 v 0.467167 l -0.306995,0.173521 v 0.360386 l -0.293648,-0.01335 v 0.240257 l 0.253605,0.280301 v 3.523774 H 0.94457833 l -0.290315,0.502839 v 0.428858 h 0.148742 v 6.361346 H 18.763899 v -1.406291 l 1.1723,-0.676828 1.715789,-0.625644 h 3.048539 l 2.070078,0.554676 1.539361,0.41247 v 1.817123 h 3.233256 v -1.708314 l 1.793258,-0.73618 1.99192,-0.533733 h 2.972573 l 2.67101,0.637553 1.604494,0.670113 v 1.670561 h 3.275056 v -1.651685 l 1.755505,-0.792809 1.759973,-0.471583 h 2.373958 l 2.072357,0.555286 1.636856,0.69023 v 1.661122 z"
       id="path902"
       sodipodi:nodetypes="cccccccccccccccccccccccccccccccccccccccccccccccccccccccccccccccccccccccccccccccccccccccccccccccccccccccccccccccccccccccccccccccccccccccccccccccccccccccccccccccccccccccccccccccccccccccccccccccccccccccccccccccccccccccccccccccccccccccccccccccccccccccccccccccccccccccccccccccccccccccccccccccccccccccccccccccccccccccc" />
  </g>
</svg>
