<?xml version="1.0" encoding="UTF-8" standalone="no"?>
<!-- Created with Inkscape (http://www.inkscape.org/) -->

<svg
   width="130mm"
   height="36mm"
   viewBox="0 0 130 36"
   version="1.1"
   id="svg894"
   inkscape:version="1.1 (c68e22c387, 2021-05-23)"
   sodipodi:docname="github.svg"
   xmlns:inkscape="http://www.inkscape.org/namespaces/inkscape"
   xmlns:sodipodi="http://sodipodi.sourceforge.net/DTD/sodipodi-0.dtd"
   xmlns="http://www.w3.org/2000/svg"
   xmlns:svg="http://www.w3.org/2000/svg">
  <sodipodi:namedview
     id="namedview896"
     pagecolor="#23373b"
     bordercolor="#666666"
     borderopacity="1.0"
     inkscape:pageshadow="2"
     inkscape:pageopacity="0"
     inkscape:pagecheckerboard="false"
     inkscape:document-units="mm"
     showgrid="false"
     showborder="true"
     inkscape:zoom="1.0492383"
     inkscape:cx="302.12394"
     inkscape:cy="170.12342"
     inkscape:window-width="1841"
     inkscape:window-height="1051"
     inkscape:window-x="70"
     inkscape:window-y="-9"
     inkscape:window-maximized="1"
     inkscape:current-layer="layer1" />
  <defs
     id="defs891" />
  <g
     inkscape:label="Layer 1"
     inkscape:groupmode="layer"
     id="layer1">
    <path
       d="M 25.873813,15.555896 H 15.196287 c -0.275519,0 -0.498827,0.223661 -0.498827,0.499181 v 5.220406 c 0,0.275519 0.223308,0.499886 0.498827,0.499886 h 4.165248 v 6.48582 c 0,0 -0.935214,0.318911 -3.521075,0.318911 -3.05047,0 -7.3120261,-1.114778 -7.3120261,-10.485615 0,-9.3733063 4.4375921,-10.6062643 8.6035451,-10.6062643 3.606448,0 5.159728,0.634647 6.148564,0.940858 0.310798,0.09525 0.597959,-0.214136 0.597959,-0.490008 l 1.190978,-5.043665 c 0,-0.129469 -0.04375,-0.284339 -0.1905,-0.389819 -0.401461,-0.286456 -2.850798,-1.65699696 -9.03852,-1.65699696 -7.1278761,0 -14.4399011,3.03247796 -14.4399011,17.61137326 0,14.578895 8.371417,16.751336 15.4259151,16.751336 5.840942,0 9.384242,-2.495938 9.384242,-2.495938 0.14605,-0.08079 0.161925,-0.285044 0.161925,-0.378178 V 16.055077 c 0,-0.27552 -0.223308,-0.499181 -0.498828,-0.499181"
       style="fill:#ffffff;fill-opacity:1;fill-rule:nonzero;stroke:none;stroke-width:0.0352778"
       id="path14" />
    <path
       d="m 80.901507,2.5955447 c 0,-0.277989 -0.22013,-0.502003 -0.49601,-0.502003 h -6.01204 c -0.27446,0 -0.49777,0.224014 -0.49777,0.502003 0,0.0011 0.002,11.6183843 0.002,11.6183843 H 64.525913 V 2.5955447 c 0,-0.277989 -0.220839,-0.502003 -0.496006,-0.502003 h -6.011686 c -0.273403,0 -0.496712,0.224014 -0.496712,0.502003 V 34.055141 c 0,0.277671 0.223309,0.503131 0.496712,0.503131 h 6.011686 c 0.275167,0 0.496006,-0.22546 0.496006,-0.503131 V 20.598502 h 9.371544 c 0,0 -0.0166,13.455651 -0.0166,13.456639 0,0.277671 0.22295,0.503131 0.49812,0.503131 h 6.02615 c 0.27552,0 0.49565,-0.22546 0.49636,-0.503131 V 2.5955447"
       style="fill:#ffffff;fill-opacity:1;fill-rule:nonzero;stroke:none;stroke-width:0.0352778"
       id="path16" />
    <path
       d="m 37.218794,6.7233977 c 0,-2.164644 -1.735314,-3.914069 -3.876675,-3.914069 -2.139244,0 -3.876322,1.749425 -3.876322,3.914069 0,2.162881 1.737078,3.9172453 3.876322,3.9172453 2.141361,0 3.876675,-1.7543643 3.876675,-3.9172453"
       style="fill:#ffffff;fill-opacity:1;fill-rule:nonzero;stroke:none;stroke-width:0.0352778"
       id="path18" />
    <path
       d="m 36.789111,27.418755 c 0,-0.806097 0,-14.521745 0,-14.521745 0,-0.275872 -0.222603,-0.501297 -0.497417,-0.501297 h -5.993342 c -0.274814,0 -0.5207,0.283633 -0.5207,0.559152 0,0 0,17.474496 0,20.805777 0,0.611293 0.381,0.793326 0.873831,0.793326 0,0 2.558344,0 5.399617,0 0.592667,0 0.738011,-0.291041 0.738011,-0.803239 0,-1.115096 0,-5.483896 0,-6.331974"
       style="fill:#ffffff;fill-opacity:1;fill-rule:nonzero;stroke:none;stroke-width:0.0352778"
       id="path20" />
    <path
       d="m 103.74987,12.442985 h -5.965833 c -0.2734,0 -0.49636,0.225778 -0.49636,0.503414 v 15.425209 c 0,0 -1.51588,1.109133 -3.66712,1.109133 -2.15089,0 -2.72168,-0.976136 -2.72168,-3.082219 0,-2.109259 0,-13.452123 0,-13.452123 0,-0.277636 -0.22225,-0.503414 -0.49636,-0.503414 h -6.05508 c -0.27305,0 -0.49706,0.225778 -0.49706,0.503414 0,0 0,8.214431 0,14.47024 0,6.256902 3.48685,7.787499 8.28357,7.787499 3.93559,0 7.10848,-2.174452 7.10848,-2.174452 0,0 0.15099,1.146175 0.21942,1.281642 0.0681,0.135431 0.24624,0.272697 0.43886,0.272697 l 3.851983,-0.01736 c 0.27305,0 0.49706,-0.225742 0.49706,-0.502285 l -0.002,-21.117984 c 0,-0.277636 -0.22261,-0.503414 -0.49777,-0.503414"
       style="fill:#ffffff;fill-opacity:1;fill-rule:nonzero;stroke:none;stroke-width:0.0352778"
       id="path22" />
    <path
       d="m 117.70294,29.461691 c -2.0694,-0.06279 -3.4731,-1.002241 -3.4731,-1.002241 v -9.962445 c 0,0 1.38465,-0.848784 3.08363,-1.000478 2.14842,-0.192617 4.21852,0.456494 4.21852,5.58165 0,5.404203 -0.93416,6.470651 -3.82905,6.383514 z m 2.35302,-17.72532 c -3.38843,0 -5.69312,1.511653 -5.69312,1.511653 V 2.5955447 c 0,-0.277989 -0.22225,-0.502003 -0.49601,-0.502003 h -6.02933 c -0.2741,0 -0.49671,0.224014 -0.49671,0.502003 V 34.055141 c 0,0.277671 0.22261,0.503131 0.49742,0.503131 7.1e-4,0 4.18183,0 4.18324,0 0.18838,0 0.3309,-0.09701 0.43639,-0.266664 0.10406,-0.169369 0.254,-1.451011 0.254,-1.451011 0,0 2.46521,2.336412 7.1321,2.336412 5.47935,0 8.62154,-2.779148 8.62154,-12.476304 0,-9.697156 -5.01862,-10.964334 -8.40952,-10.964334"
       style="fill:#ffffff;fill-opacity:1;fill-rule:nonzero;stroke:none;stroke-width:0.0352778"
       id="path24" />
    <path
       d="m 54.068168,12.39289 h -4.509912 c 0,0 -0.0067,-5.9563003 -0.0067,-5.9577113 0,-0.225778 -0.116416,-0.338314 -0.377119,-0.338314 h -6.145389 c -0.239184,0 -0.367242,0.105128 -0.367242,0.334786 v 6.1566783 c 0,0 -3.07975,0.743656 -3.288242,0.803275 -0.20708,0.06033 -0.359833,0.251531 -0.359833,0.479778 v 3.868914 c 0,0.278342 0.22225,0.502709 0.497064,0.502709 h 3.151011 c 0,0 0,4.046361 0,9.307689 0,6.913316 4.849284,7.592554 8.121298,7.592554 1.495425,0 3.284008,-0.480553 3.579283,-0.58928 0.178506,-0.06586 0.282223,-0.250789 0.282223,-0.451555 l 0.0053,-4.255841 c 0,-0.277283 -0.234597,-0.502356 -0.498475,-0.502356 -0.263172,0 -0.935214,0.107245 -1.627364,0.107245 -2.215444,0 -2.965803,-1.030111 -2.965803,-2.363259 0,-1.332441 -3.53e-4,-8.845197 -3.53e-4,-8.845197 h 4.510265 c 0.274814,0 0.497416,-0.224367 0.497416,-0.502709 v -4.846108 c 0,-0.277637 -0.222602,-0.501298 -0.497416,-0.501298"
       style="fill:#ffffff;fill-opacity:1;fill-rule:nonzero;stroke:none;stroke-width:0.0352778"
       id="path26" />
  </g>
</svg>
