<?xml version="1.0" encoding="UTF-8" standalone="no"?>
<!-- Created with Inkscape (http://www.inkscape.org/) -->

<svg
   width="7.4437509mm"
   height="5.5916662mm"
   viewBox="0 0 7.4437508 5.5916662"
   version="1.1"
   id="svg894"
   inkscape:version="1.1 (c68e22c387, 2021-05-23)"
   sodipodi:docname="logo.svg"
   inkscape:export-filename="C:\Users\matte\OneDrive\Desktop\signature\logo.png"
   inkscape:export-xdpi="300"
   inkscape:export-ydpi="300"
   xmlns:inkscape="http://www.inkscape.org/namespaces/inkscape"
   xmlns:sodipodi="http://sodipodi.sourceforge.net/DTD/sodipodi-0.dtd"
   xmlns="http://www.w3.org/2000/svg"
   xmlns:svg="http://www.w3.org/2000/svg"
   xmlns:ns3="http://www.iki.fi/pav/software/textext/">
  <sodipodi:namedview
     id="namedview896"
     pagecolor="#23373b"
     bordercolor="#666666"
     borderopacity="1.0"
     inkscape:pageshadow="2"
     inkscape:pageopacity="0"
     inkscape:pagecheckerboard="false"
     inkscape:document-units="mm"
     showgrid="true"
     showborder="true"
     inkscape:zoom="24.078312"
     inkscape:cx="14.909683"
     inkscape:cy="10.195897"
     inkscape:window-width="1841"
     inkscape:window-height="1051"
     inkscape:window-x="2470"
     inkscape:window-y="-9"
     inkscape:window-maximized="1"
     inkscape:current-layer="layer1"
     fit-margin-top="0"
     fit-margin-left="0"
     fit-margin-right="0"
     fit-margin-bottom="0">
    <inkscape:grid
       type="xygrid"
       id="grid825"
       originx="-76.050001"
       originy="-42.183334" />
  </sodipodi:namedview>
  <defs
     id="defs891" />
  <g
     inkscape:label="Layer 1"
     inkscape:groupmode="layer"
     id="layer1"
     transform="translate(-76.05,-42.183335)">
    <path
       style="fill:#23373b;fill-opacity:1;stroke:#000000;stroke-width:0.2;stroke-linecap:butt;stroke-linejoin:miter;stroke-miterlimit:4;stroke-dasharray:none;stroke-opacity:1"
       d="m 77.522917,47.625001 c -1.322917,0 -1.322916,-1.322916 -1.322916,-1.322916 v -3.96875 h 5.291667 0.529166 c 1.322917,0 1.322916,1.322916 1.322916,1.322916 v 3.96875 h -5.291667 z"
       id="path1102-3-9"
       sodipodi:nodetypes="ccccccccc" />
    <path
       style="fill:#23373b;fill-opacity:1;stroke:#ffffff;stroke-width:0.1;stroke-linecap:butt;stroke-linejoin:miter;stroke-miterlimit:4;stroke-dasharray:none;stroke-opacity:1"
       d="M 77.522916,47.624999 C 76.199999,47.624999 76.2,46.302083 76.2,46.302083 v -3.96875 h 5.291667 0.529166 c 1.322917,0 1.322916,1.322916 1.322916,1.322916 v 3.96875 h -5.291667 z"
       id="path1102-3"
       sodipodi:nodetypes="ccccccccc" />
    <g
       transform="matrix(0.2540004,0,0,0.2540004,77.535774,43.46294)"
       ns3:version="1.6.1"
       ns3:texconverter="pdflatex"
       ns3:pdfconverter="inkscape"
       ns3:text="\\textbf{\\textsf{M:T}}"
       ns3:preamble="C:\Users\matte\AppData\Roaming\inkscape\extensions\textext\default_packages.tex"
       ns3:scale="0.6"
       ns3:alignment="middle center"
       ns3:stroke-to-path="0"
       ns3:inkscapeversion="1.1"
       ns3:jacobian_sqrt="0.211667"
       id="g856"
       style="fill:#ffffff">
      <defs
         id="id-c9c7d548-0a35-40d0-a02c-86818c21ba97">
        <g
           id="id-b65901e8-bd1d-4c7f-b598-5c993abd286f">
          <symbol
             overflow="visible"
             id="id-a5e1e380-ffb9-4829-8119-43a75c0acf59">
            <path
               style="stroke:none;stroke-width:0"
               d=""
               id="id-7995ff4b-206a-4871-942e-cb13bba90c3c" />
          </symbol>
          <symbol
             overflow="visible"
             id="id-eb0ea3eb-58fa-4f03-8c18-a3e35f30c1aa">
            <path
               style="stroke:none;stroke-width:0"
               d="M 5.53125,-3.265625 C 5.328125,-2.75 4.953125,-1.828125 4.875,-1.484375 H 4.859375 c -0.078125,-0.359375 -0.5,-1.34375 -0.703125,-1.875 L 2.875,-6.515625 C 2.71875,-6.921875 2.390625,-6.921875 2.21875,-6.921875 H 1.390625 c -0.359375,0 -0.484375,0.109375 -0.484375,0.484375 v 5.953125 C 0.90625,-0.125 1.015625,0 1.390625,0 H 1.65625 c 0.375,0 0.484375,-0.125 0.484375,-0.484375 V -5.625 C 2.25,-5.1875 2.703125,-4.078125 2.9375,-3.484375 l 1.15625,2.84375 c 0.1875,0.421875 0.421875,0.421875 0.765625,0.421875 0.328125,0 0.578125,0 0.75,-0.421875 L 6.890625,-3.78125 C 6.984375,-4.015625 7.53125,-5.375 7.59375,-5.625 h 0.015625 v 5.140625 C 7.609375,-0.15625 7.671875,0 8.078125,0 h 0.28125 c 0.375,0 0.46875,-0.125 0.46875,-0.484375 V -6.4375 c 0,-0.328125 -0.0625,-0.484375 -0.46875,-0.484375 h -0.84375 c -0.25,0 -0.5,0.03125 -0.671875,0.4375 z m 0,0"
               id="id-459cf068-d261-4430-97b3-b2fe8e3da0b0" />
          </symbol>
          <symbol
             overflow="visible"
             id="id-a0cb9695-2907-4fd3-9678-4887c57d3e92">
            <path
               style="stroke:none;stroke-width:0"
               d="M 2.171875,-4.296875 C 2.171875,-4.5625 2.15625,-4.5625 1.90625,-4.5625 H 1.140625 c -0.265625,0 -0.265625,0 -0.265625,0.265625 v 0.765625 c 0,0.265625 0,0.265625 0.265625,0.265625 H 1.90625 c 0.25,0 0.265625,0 0.265625,-0.265625 z M 0.875,-0.265625 C 0.875,-0.015625 0.875,0 1.140625,0 H 1.90625 c 0.25,0 0.265625,-0.015625 0.265625,-0.265625 V -1.03125 c 0,-0.265625 -0.015625,-0.28125 -0.265625,-0.28125 H 1.140625 C 0.875,-1.3125 0.875,-1.296875 0.875,-1.03125 Z m 0,0"
               id="id-766a481f-78ce-473b-bb92-4673176049ce" />
          </symbol>
          <symbol
             overflow="visible"
             id="id-9154f481-ada4-476c-b0de-149f434dc976">
            <path
               style="stroke:none;stroke-width:0"
               d="m 2.921875,-5.859375 v 5.375 C 2.921875,-0.125 3.03125,0 3.40625,0 h 0.5 c 0.375,0 0.484375,-0.125 0.484375,-0.484375 v -5.375 c 0.4375,0 1.546875,0.03125 1.984375,0.03125 0.28125,0 0.515625,0 0.515625,-0.46875 V -6.375 c 0,-0.328125 -0.0625,-0.484375 -0.46875,-0.484375 H 0.875 c -0.359375,0 -0.46875,0.109375 -0.46875,0.484375 v 0.078125 c 0,0.46875 0.234375,0.46875 0.515625,0.46875 z m 0,0"
               id="id-9a5bf2af-b828-4a76-8b7a-b2204ea742e4" />
          </symbol>
        </g>
      </defs>
      <g
         id="id-a2a2d200-ddd7-4b43-bcce-0bb25d4444a9"
         transform="translate(-134.674,-127.843)"
         style="fill:#ffffff">
        <g
           style="fill:#ffffff;fill-opacity:1"
           id="id-aaa40d91-a982-46d7-9f63-576a9f6ddd43">
          <g
             transform="translate(133.768,134.765)"
             id="g846"
             style="fill:#ffffff">
            <path
               style="fill:#ffffff;stroke:none;stroke-width:0"
               d="M 5.53125,-3.265625 C 5.328125,-2.75 4.953125,-1.828125 4.875,-1.484375 H 4.859375 c -0.078125,-0.359375 -0.5,-1.34375 -0.703125,-1.875 L 2.875,-6.515625 C 2.71875,-6.921875 2.390625,-6.921875 2.21875,-6.921875 H 1.390625 c -0.359375,0 -0.484375,0.109375 -0.484375,0.484375 v 5.953125 C 0.90625,-0.125 1.015625,0 1.390625,0 H 1.65625 c 0.375,0 0.484375,-0.125 0.484375,-0.484375 V -5.625 C 2.25,-5.1875 2.703125,-4.078125 2.9375,-3.484375 l 1.15625,2.84375 c 0.1875,0.421875 0.421875,0.421875 0.765625,0.421875 0.328125,0 0.578125,0 0.75,-0.421875 L 6.890625,-3.78125 C 6.984375,-4.015625 7.53125,-5.375 7.59375,-5.625 h 0.015625 v 5.140625 C 7.609375,-0.15625 7.671875,0 8.078125,0 h 0.28125 c 0.375,0 0.46875,-0.125 0.46875,-0.484375 V -6.4375 c 0,-0.328125 -0.0625,-0.484375 -0.46875,-0.484375 h -0.84375 c -0.25,0 -0.5,0.03125 -0.671875,0.4375 z m 0,0"
               id="id-919227ac-9936-4f52-a8b7-9c572d39099f" />
          </g>
          <g
             transform="translate(143.509,134.765)"
             id="g849"
             style="fill:#ffffff">
            <path
               style="fill:#ffffff;stroke:none;stroke-width:0"
               d="M 2.171875,-4.296875 C 2.171875,-4.5625 2.15625,-4.5625 1.90625,-4.5625 H 1.140625 c -0.265625,0 -0.265625,0 -0.265625,0.265625 v 0.765625 c 0,0.265625 0,0.265625 0.265625,0.265625 H 1.90625 c 0.25,0 0.265625,0 0.265625,-0.265625 z M 0.875,-0.265625 C 0.875,-0.015625 0.875,0 1.140625,0 H 1.90625 c 0.25,0 0.265625,-0.015625 0.265625,-0.265625 V -1.03125 c 0,-0.265625 -0.015625,-0.28125 -0.265625,-0.28125 H 1.140625 C 0.875,-1.3125 0.875,-1.296875 0.875,-1.03125 Z m 0,0"
               id="id-508767cc-7a57-4d68-ad7e-06a3147621bb" />
          </g>
          <g
             transform="translate(146.554,134.765)"
             id="g852"
             style="fill:#ffffff">
            <path
               style="fill:#ffffff;stroke:none;stroke-width:0"
               d="m 2.921875,-5.859375 v 5.375 C 2.921875,-0.125 3.03125,0 3.40625,0 h 0.5 c 0.375,0 0.484375,-0.125 0.484375,-0.484375 v -5.375 c 0.4375,0 1.546875,0.03125 1.984375,0.03125 0.28125,0 0.515625,0 0.515625,-0.46875 V -6.375 c 0,-0.328125 -0.0625,-0.484375 -0.46875,-0.484375 H 0.875 c -0.359375,0 -0.46875,0.109375 -0.46875,0.484375 v 0.078125 c 0,0.46875 0.234375,0.46875 0.515625,0.46875 z m 0,0"
               id="id-a8ff5c76-75ae-4cb8-985d-f4f462f8b704" />
          </g>
        </g>
      </g>
    </g>
    <path
       style="fill:none;stroke:#ff8000;stroke-width:0.3175px;stroke-linecap:butt;stroke-linejoin:miter;stroke-opacity:1"
       d="m 77.376013,46.184244 h 4.7625"
       id="path931" />
  </g>
</svg>
